# MagicaVoxel @ Ephtracy

# group
o 

# material
mtllib Log.mtl
usemtl palette

# normals
vn -1 0 0
vn 1 0 0
vn 0 0 1
vn 0 0 -1
vn 0 -1 0
vn 0 1 0

# texcoords
vt 0.224609 0.5
vt 0.279297 0.5
vt 0.302734 0.5

# verts
v -1.2 0 0.3
v -1.2 0 -0.3
v -1.2 0.1 0.2
v -1.2 0.1 -0.2
v -1.2 0.4 0.2
v -1.2 0.4 -0.2
v -1.2 0.5 0.3
v -1.2 0.5 -0.3
v -1 0.1 0.2
v -1 0.1 -0.2
v -1 0.4 0.2
v -1 0.4 -0.2
v 1 0.1 0.2
v 1 0.1 -0.2
v 1 0.4 0.2
v 1 0.4 -0.2
v 1.2 0 0.3
v 1.2 0 -0.3
v 1.2 0.1 0.2
v 1.2 0.1 -0.2
v 1.2 0.4 0.2
v 1.2 0.4 -0.2
v 1.2 0.5 0.3
v 1.2 0.5 -0.3
v -1.2 0 0.3
v -1.2 0.5 0.3
v -1.1 0 0.3
v -1.1 0.5 0.3
v -0.9 0.3 0.3
v -0.9 0.4 0.3
v -0.4 0.3 0.3
v -0.4 0.4 0.3
v -0.3 0.1 0.3
v -0.3 0.2 0.3
v 0.3 0.1 0.3
v 0.3 0.2 0.3
v 0.3 0.3 0.3
v 0.3 0.4 0.3
v 0.5 0.2 0.3
v 0.5 0.3 0.3
v 0.9 0.2 0.3
v 0.9 0.4 0.3
v 1.1 0 0.3
v 1.1 0.5 0.3
v 1.2 0 0.3
v 1.2 0.5 0.3
v -1.2 0.1 -0.2
v -1.2 0.4 -0.2
v -1.1 0.1 -0.2
v -1.1 0.4 -0.2
v -1 0.1 -0.2
v -1 0.4 -0.2
v 1 0.1 -0.2
v 1 0.4 -0.2
v 1.1 0.1 -0.2
v 1.1 0.4 -0.2
v 1.2 0.1 -0.2
v 1.2 0.4 -0.2
v -1.2 0.1 0.2
v -1.2 0.4 0.2
v -1.1 0.1 0.2
v -1.1 0.4 0.2
v -1 0.1 0.2
v -1 0.4 0.2
v 1 0.1 0.2
v 1 0.4 0.2
v 1.1 0.1 0.2
v 1.1 0.4 0.2
v 1.2 0.1 0.2
v 1.2 0.4 0.2
v -1.2 0 -0.3
v -1.2 0.5 -0.3
v -1.1 0 -0.3
v -1.1 0.5 -0.3
v -1 0.2 -0.3
v -1 0.3 -0.3
v -1 0.4 -0.3
v -1 0.5 -0.3
v -0.9 0.3 -0.3
v -0.9 0.4 -0.3
v -0.7 0.2 -0.3
v -0.7 0.3 -0.3
v -0.7 0.4 -0.3
v -0.7 0.5 -0.3
v -0.2 0.3 -0.3
v -0.2 0.4 -0.3
v -0.0999999 0.1 -0.3
v -0.0999999 0.2 -0.3
v 0.1 0.2 -0.3
v 0.1 0.3 -0.3
v 0.4 0.1 -0.3
v 0.4 0.3 -0.3
v 0.5 0.3 -0.3
v 0.5 0.4 -0.3
v 0.8 0.2 -0.3
v 0.8 0.3 -0.3
v 0.9 0.3 -0.3
v 0.9 0.4 -0.3
v 1 0.2 -0.3
v 1 0.3 -0.3
v 1.1 0 -0.3
v 1.1 0.5 -0.3
v 1.2 0 -0.3
v 1.2 0.5 -0.3
v -1.2 0 0.3
v -1.1 0 0.3
v 1.1 0 0.3
v 1.2 0 0.3
v -1.2 0 -0.3
v -1.1 0 -0.3
v 1.1 0 -0.3
v 1.2 0 -0.3
v -1.2 0.4 0.2
v -1.1 0.4 0.2
v -1 0.4 0.2
v 1 0.4 0.2
v 1.1 0.4 0.2
v 1.2 0.4 0.2
v -1.2 0.4 -0.2
v -1.1 0.4 -0.2
v -1 0.4 -0.2
v 1 0.4 -0.2
v 1.1 0.4 -0.2
v 1.2 0.4 -0.2
v -1.2 0.1 0.2
v -1.1 0.1 0.2
v -1 0.1 0.2
v 1 0.1 0.2
v 1.1 0.1 0.2
v 1.2 0.1 0.2
v -1.2 0.1 -0.2
v -1.1 0.1 -0.2
v -1 0.1 -0.2
v 1 0.1 -0.2
v 1.1 0.1 -0.2
v 1.2 0.1 -0.2
v -1.2 0.5 0.3
v -1.1 0.5 0.3
v 1.1 0.5 0.3
v 1.2 0.5 0.3
v -0.9 0.5 0.1
v -0.5 0.5 0.1
v -0.2 0.5 0.1
v 0.3 0.5 0.1
v 0.5 0.5 0.1
v 0.9 0.5 0.1
v -0.9 0.5 -2.98023e-008
v -0.5 0.5 -2.98023e-008
v -0.2 0.5 -2.98023e-008
v 0.3 0.5 -2.98023e-008
v 0.5 0.5 -2.98023e-008
v 0.7 0.5 -2.98023e-008
v 0.9 0.5 -2.98023e-008
v 1 0.5 -2.98023e-008
v -0.6 0.5 -0.1
v 0.6 0.5 -0.1
v 0.7 0.5 -0.1
v 1 0.5 -0.1
v -1 0.5 -0.2
v -0.7 0.5 -0.2
v -0.6 0.5 -0.2
v 0.6 0.5 -0.2
v -1.2 0.5 -0.3
v -1.1 0.5 -0.3
v -1 0.5 -0.3
v -0.7 0.5 -0.3
v 1.1 0.5 -0.3
v 1.2 0.5 -0.3

# faces
f 3/3/1 2/3/1 1/3/1
f 4/3/1 2/3/1 3/3/1
f 5/3/1 3/3/1 1/3/1
f 6/3/1 2/3/1 4/3/1
f 7/3/1 5/3/1 1/3/1
f 7/3/1 6/3/1 5/3/1
f 8/3/1 2/3/1 6/3/1
f 8/3/1 6/3/1 7/3/1
f 11/3/1 10/3/1 9/3/1
f 12/3/1 10/3/1 11/3/1
f 13/3/2 14/3/2 15/3/2
f 15/3/2 14/3/2 16/3/2
f 17/3/2 18/3/2 19/3/2
f 19/3/2 18/3/2 20/3/2
f 17/3/2 19/3/2 21/3/2
f 20/3/2 18/3/2 22/3/2
f 17/3/2 21/3/2 23/3/2
f 21/3/2 22/3/2 23/3/2
f 22/3/2 18/3/2 24/3/2
f 23/3/2 22/3/2 24/3/2
f 27/3/3 26/3/3 25/3/3
f 28/3/3 26/3/3 27/3/3
f 29/2/3 28/2/3 27/2/3
f 30/2/3 28/2/3 29/2/3
f 31/2/3 29/2/3 27/2/3
f 31/1/3 30/1/3 29/1/3
f 32/2/3 28/2/3 30/2/3
f 32/1/3 30/1/3 31/1/3
f 33/2/3 31/2/3 27/2/3
f 33/2/3 32/2/3 31/2/3
f 34/2/3 32/2/3 33/2/3
f 35/2/3 33/2/3 27/2/3
f 35/1/3 34/1/3 33/1/3
f 36/2/3 32/2/3 34/2/3
f 36/1/3 34/1/3 35/1/3
f 37/2/3 32/2/3 36/2/3
f 38/2/3 28/2/3 32/2/3
f 38/2/3 32/2/3 37/2/3
f 39/2/3 37/2/3 36/2/3
f 39/2/3 36/2/3 35/2/3
f 40/1/3 38/1/3 37/1/3
f 40/2/3 37/2/3 39/2/3
f 41/2/3 39/2/3 35/2/3
f 41/1/3 40/1/3 39/1/3
f 42/2/3 28/2/3 38/2/3
f 42/1/3 40/1/3 41/1/3
f 42/1/3 38/1/3 40/1/3
f 43/2/3 41/2/3 35/2/3
f 43/2/3 35/2/3 27/2/3
f 43/2/3 42/2/3 41/2/3
f 44/2/3 28/2/3 42/2/3
f 44/2/3 42/2/3 43/2/3
f 45/3/3 44/3/3 43/3/3
f 46/3/3 44/3/3 45/3/3
f 49/3/3 48/3/3 47/3/3
f 50/3/3 48/3/3 49/3/3
f 51/2/3 50/2/3 49/2/3
f 52/2/3 50/2/3 51/2/3
f 55/2/3 54/2/3 53/2/3
f 56/2/3 54/2/3 55/2/3
f 57/3/3 56/3/3 55/3/3
f 58/3/3 56/3/3 57/3/3
f 59/3/4 60/3/4 61/3/4
f 61/3/4 60/3/4 62/3/4
f 61/2/4 62/2/4 63/2/4
f 63/2/4 62/2/4 64/2/4
f 65/2/4 66/2/4 67/2/4
f 67/2/4 66/2/4 68/2/4
f 67/3/4 68/3/4 69/3/4
f 69/3/4 68/3/4 70/3/4
f 71/3/4 72/3/4 73/3/4
f 73/3/4 72/3/4 74/3/4
f 73/2/4 74/2/4 75/2/4
f 75/2/4 74/2/4 76/2/4
f 76/2/4 74/2/4 77/2/4
f 77/2/4 74/2/4 78/2/4
f 75/1/4 76/1/4 79/1/4
f 76/2/4 77/2/4 79/2/4
f 77/1/4 78/1/4 80/1/4
f 79/2/4 77/2/4 80/2/4
f 73/2/4 75/2/4 81/2/4
f 75/1/4 79/1/4 81/1/4
f 79/1/4 80/1/4 81/1/4
f 81/1/4 80/1/4 82/1/4
f 80/1/4 78/1/4 83/1/4
f 82/1/4 80/1/4 83/1/4
f 83/1/4 78/1/4 84/1/4
f 81/2/4 82/2/4 85/2/4
f 82/1/4 83/1/4 85/1/4
f 83/2/4 84/2/4 86/2/4
f 85/1/4 83/1/4 86/1/4
f 73/2/4 81/2/4 87/2/4
f 81/2/4 85/2/4 87/2/4
f 85/2/4 86/2/4 87/2/4
f 87/2/4 86/2/4 88/2/4
f 87/1/4 88/1/4 89/1/4
f 88/2/4 86/2/4 89/2/4
f 89/2/4 86/2/4 90/2/4
f 73/2/4 87/2/4 91/2/4
f 87/1/4 89/1/4 91/1/4
f 89/1/4 90/1/4 91/1/4
f 90/2/4 86/2/4 92/2/4
f 91/1/4 90/1/4 92/1/4
f 91/2/4 92/2/4 93/2/4
f 92/2/4 86/2/4 93/2/4
f 86/2/4 84/2/4 94/2/4
f 93/2/4 86/2/4 94/2/4
f 91/2/4 93/2/4 95/2/4
f 93/1/4 94/1/4 96/1/4
f 95/2/4 93/2/4 96/2/4
f 95/1/4 96/1/4 97/1/4
f 96/1/4 94/1/4 97/1/4
f 94/2/4 84/2/4 98/2/4
f 97/1/4 94/1/4 98/1/4
f 95/1/4 97/1/4 99/1/4
f 91/2/4 95/2/4 99/2/4
f 97/2/4 98/2/4 100/2/4
f 99/1/4 97/1/4 100/1/4
f 73/2/4 91/2/4 101/2/4
f 91/2/4 99/2/4 101/2/4
f 99/2/4 100/2/4 101/2/4
f 98/2/4 84/2/4 102/2/4
f 101/2/4 100/2/4 102/2/4
f 100/2/4 98/2/4 102/2/4
f 101/3/4 102/3/4 103/3/4
f 103/3/4 102/3/4 104/3/4
f 109/3/5 106/3/5 105/3/5
f 110/2/5 107/2/5 106/2/5
f 110/3/5 106/3/5 109/3/5
f 111/3/5 108/3/5 107/3/5
f 111/2/5 107/2/5 110/2/5
f 112/3/5 108/3/5 111/3/5
f 119/3/5 114/3/5 113/3/5
f 120/2/5 115/2/5 114/2/5
f 120/3/5 114/3/5 119/3/5
f 121/2/5 115/2/5 120/2/5
f 122/2/5 117/2/5 116/2/5
f 123/3/5 118/3/5 117/3/5
f 123/2/5 117/2/5 122/2/5
f 124/3/5 118/3/5 123/3/5
f 125/3/6 126/3/6 131/3/6
f 126/2/6 127/2/6 132/2/6
f 131/3/6 126/3/6 132/3/6
f 132/2/6 127/2/6 133/2/6
f 128/2/6 129/2/6 134/2/6
f 129/3/6 130/3/6 135/3/6
f 134/2/6 129/2/6 135/2/6
f 135/3/6 130/3/6 136/3/6
f 138/2/6 139/2/6 141/2/6
f 141/2/6 139/2/6 142/2/6
f 142/2/6 139/2/6 143/2/6
f 143/2/6 139/2/6 144/2/6
f 144/2/6 139/2/6 145/2/6
f 145/2/6 139/2/6 146/2/6
f 138/2/6 141/2/6 147/2/6
f 141/1/6 142/1/6 147/1/6
f 142/2/6 143/2/6 148/2/6
f 147/1/6 142/1/6 148/1/6
f 143/1/6 144/1/6 149/1/6
f 148/2/6 143/2/6 149/2/6
f 144/2/6 145/2/6 150/2/6
f 149/1/6 144/1/6 150/1/6
f 145/1/6 146/1/6 151/1/6
f 150/2/6 145/2/6 151/2/6
f 151/1/6 146/1/6 152/1/6
f 146/2/6 139/2/6 153/2/6
f 152/1/6 146/1/6 153/1/6
f 153/2/6 139/2/6 154/2/6
f 151/2/6 152/2/6 155/2/6
f 149/2/6 150/2/6 155/2/6
f 147/2/6 148/2/6 155/2/6
f 148/2/6 149/2/6 155/2/6
f 150/2/6 151/2/6 155/2/6
f 155/2/6 152/2/6 156/2/6
f 153/1/6 154/1/6 157/1/6
f 156/2/6 152/2/6 157/2/6
f 152/1/6 153/1/6 157/1/6
f 154/2/6 139/2/6 158/2/6
f 157/1/6 154/1/6 158/1/6
f 138/2/6 147/2/6 159/2/6
f 147/2/6 155/2/6 159/2/6
f 159/2/6 155/2/6 160/2/6
f 155/1/6 156/1/6 161/1/6
f 160/2/6 155/2/6 161/2/6
f 156/2/6 157/2/6 162/2/6
f 161/1/6 156/1/6 162/1/6
f 157/2/6 158/2/6 162/2/6
f 137/3/6 138/3/6 163/3/6
f 138/2/6 159/2/6 164/2/6
f 163/3/6 138/3/6 164/3/6
f 159/1/6 160/1/6 165/1/6
f 164/2/6 159/2/6 165/2/6
f 160/2/6 161/2/6 166/2/6
f 165/1/6 160/1/6 166/1/6
f 161/2/6 162/2/6 166/2/6
f 162/2/6 158/2/6 167/2/6
f 166/2/6 162/2/6 167/2/6
f 139/3/6 140/3/6 167/3/6
f 158/2/6 139/2/6 167/2/6
f 167/3/6 140/3/6 168/3/6
