# MagicaVoxel @ Ephtracy

# group
o 

# material
mtllib Chicken.mtl
usemtl palette

# normals
vn -1 0 0
vn 1 0 0
vn 0 0 1
vn 0 0 -1
vn 0 -1 0
vn 0 1 0

# texcoords
vt 0.0917969 0.5
vt 0.849609 0.5
vt 0.958984 0.5
vt 0.994141 0.5

# verts
v -0.4 0 0.0999999
v -0.4 0 -0.4
v -0.4 0.1 0.0999999
v -0.4 0.1 -0.4
v -0.4 0.6 0.0999999
v -0.4 0.6 -0.5
v -0.4 0.9 0.0999999
v -0.4 0.9 -0.5
v -0.3 0.1 -0.2
v -0.3 0.1 -0.3
v -0.3 0.4 0.3
v -0.3 0.4 -0.2
v -0.3 0.4 -0.3
v -0.3 0.4 -0.8
v -0.3 0.6 0.0999999
v -0.3 0.6 -0.5
v -0.3 0.9 0.0999999
v -0.3 0.9 -0.5
v -0.3 1 -0.4
v -0.3 1 -0.8
v -0.3 1.3 0.0999999
v -0.3 1.3 -8.19564e-008
v -0.3 1.4 0.0999999
v -0.3 1.4 -8.19564e-008
v -0.3 1.6 0.3
v -0.3 1.6 -0.4
v -0.2 0 0.0999999
v -0.2 0 -0.1
v -0.2 0.1 0.0999999
v -0.2 0.1 -0.1
v -0.1 1 0.5
v -0.1 1 0.3
v -0.1 1.2 0.6
v -0.1 1.2 0.5
v -0.1 1.2 0.3
v -0.1 1.4 0.6
v -0.1 1.4 0.3
v -0.1 1.6 0.2
v -0.1 1.6 -0.2
v -0.1 1.8 0.2
v -0.1 1.8 -0.2
v 0.1 0 0.0999999
v 0.1 0 -0.4
v 0.1 0.1 0.0999999
v 0.1 0.1 -0.4
v 0.2 0.1 -0.2
v 0.2 0.1 -0.3
v 0.2 0.4 -0.2
v 0.2 0.4 -0.3
v 0.3 0 0.0999999
v 0.3 0 -0.1
v 0.3 0.1 0.0999999
v 0.3 0.1 -0.1
v -0.3 0 0.0999999
v -0.3 0 -0.1
v -0.3 0.1 0.0999999
v -0.3 0.1 -0.1
v -0.2 0.1 -0.2
v -0.2 0.1 -0.3
v -0.2 0.4 -0.2
v -0.2 0.4 -0.3
v -0.1 0 0.0999999
v -0.1 0 -0.4
v -0.1 0.1 0.0999999
v -0.1 0.1 -0.4
v 0.1 1 0.5
v 0.1 1 0.3
v 0.1 1.2 0.6
v 0.1 1.2 0.5
v 0.1 1.2 0.3
v 0.1 1.4 0.6
v 0.1 1.4 0.3
v 0.1 1.6 0.2
v 0.1 1.6 -0.2
v 0.1 1.8 0.2
v 0.1 1.8 -0.2
v 0.2 0 0.0999999
v 0.2 0 -0.1
v 0.2 0.1 0.0999999
v 0.2 0.1 -0.1
v 0.3 0.1 -0.2
v 0.3 0.1 -0.3
v 0.3 0.4 0.3
v 0.3 0.4 -0.2
v 0.3 0.4 -0.3
v 0.3 0.4 -0.8
v 0.3 0.6 0.0999999
v 0.3 0.6 -0.5
v 0.3 0.9 0.0999999
v 0.3 0.9 -0.5
v 0.3 1 -0.4
v 0.3 1 -0.8
v 0.3 1.3 0.0999999
v 0.3 1.3 -8.19564e-008
v 0.3 1.4 0.0999999
v 0.3 1.4 -8.19564e-008
v 0.3 1.6 0.3
v 0.3 1.6 -0.4
v 0.4 0 0.0999999
v 0.4 0 -0.4
v 0.4 0.1 0.0999999
v 0.4 0.1 -0.4
v 0.4 0.6 0.0999999
v 0.4 0.6 -0.5
v 0.4 0.9 0.0999999
v 0.4 0.9 -0.5
v -0.1 1.2 0.6
v -0.1 1.4 0.6
v 0.1 1.2 0.6
v 0.1 1.4 0.6
v -0.1 1 0.5
v -0.1 1.2 0.5
v 0.1 1 0.5
v 0.1 1.2 0.5
v -0.3 0.4 0.3
v -0.3 1.6 0.3
v -0.1 1 0.3
v -0.1 1.2 0.3
v -0.1 1.4 0.3
v 0.1 1 0.3
v 0.1 1.2 0.3
v 0.1 1.4 0.3
v 0.3 0.4 0.3
v 0.3 1.6 0.3
v -0.1 1.6 0.2
v -0.1 1.8 0.2
v 0.1 1.6 0.2
v 0.1 1.8 0.2
v -0.4 0 0.0999999
v -0.4 0.1 0.0999999
v -0.4 0.6 0.0999999
v -0.4 0.9 0.0999999
v -0.3 0 0.0999999
v -0.3 0.1 0.0999999
v -0.3 0.6 0.0999999
v -0.3 0.9 0.0999999
v -0.2 0 0.0999999
v -0.2 0.1 0.0999999
v -0.1 0 0.0999999
v -0.1 0.1 0.0999999
v 0.1 0 0.0999999
v 0.1 0.1 0.0999999
v 0.2 0 0.0999999
v 0.2 0.1 0.0999999
v 0.3 0 0.0999999
v 0.3 0.1 0.0999999
v 0.3 0.6 0.0999999
v 0.3 0.9 0.0999999
v 0.4 0 0.0999999
v 0.4 0.1 0.0999999
v 0.4 0.6 0.0999999
v 0.4 0.9 0.0999999
v -0.3 0 -0.1
v -0.3 0.1 -0.1
v -0.2 0 -0.1
v -0.2 0.1 -0.1
v 0.2 0 -0.1
v 0.2 0.1 -0.1
v 0.3 0 -0.1
v 0.3 0.1 -0.1
v -0.3 0.1 -0.2
v -0.3 0.4 -0.2
v -0.2 0.1 -0.2
v -0.2 0.4 -0.2
v 0.2 0.1 -0.2
v 0.2 0.4 -0.2
v 0.3 0.1 -0.2
v 0.3 0.4 -0.2
v -0.1 1.6 -0.2
v -0.1 1.8 -0.2
v 0.1 1.6 -0.2
v 0.1 1.8 -0.2
v -0.3 0.1 -0.3
v -0.3 0.4 -0.3
v -0.2 0.1 -0.3
v -0.2 0.4 -0.3
v 0.2 0.1 -0.3
v 0.2 0.4 -0.3
v 0.3 0.1 -0.3
v 0.3 0.4 -0.3
v -0.4 0 -0.4
v -0.4 0.1 -0.4
v -0.3 1 -0.4
v -0.3 1.6 -0.4
v -0.1 0 -0.4
v -0.1 0.1 -0.4
v 0.1 0 -0.4
v 0.1 0.1 -0.4
v 0.3 1 -0.4
v 0.3 1.6 -0.4
v 0.4 0 -0.4
v 0.4 0.1 -0.4
v -0.4 0.6 -0.5
v -0.4 0.9 -0.5
v -0.3 0.6 -0.5
v -0.3 0.9 -0.5
v 0.3 0.6 -0.5
v 0.3 0.9 -0.5
v 0.4 0.6 -0.5
v 0.4 0.9 -0.5
v -0.3 0.4 -0.8
v -0.3 1 -0.8
v 0.3 0.4 -0.8
v 0.3 1 -0.8
v -0.4 0 0.0999999
v -0.3 0 0.0999999
v -0.2 0 0.0999999
v -0.1 0 0.0999999
v 0.1 0 0.0999999
v 0.2 0 0.0999999
v 0.3 0 0.0999999
v 0.4 0 0.0999999
v -0.3 0 -0.1
v -0.2 0 -0.1
v 0.2 0 -0.1
v 0.3 0 -0.1
v -0.4 0 -0.4
v -0.1 0 -0.4
v 0.1 0 -0.4
v 0.4 0 -0.4
v -0.3 0.4 0.3
v 0.3 0.4 0.3
v -0.3 0.4 -0.2
v -0.2 0.4 -0.2
v 0.2 0.4 -0.2
v 0.3 0.4 -0.2
v -0.3 0.4 -0.3
v -0.2 0.4 -0.3
v 0.2 0.4 -0.3
v 0.3 0.4 -0.3
v -0.3 0.4 -0.8
v 0.3 0.4 -0.8
v -0.4 0.6 0.0999999
v -0.3 0.6 0.0999999
v 0.3 0.6 0.0999999
v 0.4 0.6 0.0999999
v -0.4 0.6 -0.5
v -0.3 0.6 -0.5
v 0.3 0.6 -0.5
v 0.4 0.6 -0.5
v -0.1 1 0.5
v 0.1 1 0.5
v -0.1 1 0.3
v 0.1 1 0.3
v -0.1 1.2 0.6
v 0.1 1.2 0.6
v -0.1 1.2 0.5
v 0.1 1.2 0.5
v -0.4 0.1 0.0999999
v -0.3 0.1 0.0999999
v -0.2 0.1 0.0999999
v -0.1 0.1 0.0999999
v 0.1 0.1 0.0999999
v 0.2 0.1 0.0999999
v 0.3 0.1 0.0999999
v 0.4 0.1 0.0999999
v -0.3 0.1 -0.1
v -0.2 0.1 -0.1
v 0.2 0.1 -0.1
v 0.3 0.1 -0.1
v -0.3 0.1 -0.2
v -0.2 0.1 -0.2
v 0.2 0.1 -0.2
v 0.3 0.1 -0.2
v -0.3 0.1 -0.3
v -0.2 0.1 -0.3
v 0.2 0.1 -0.3
v 0.3 0.1 -0.3
v -0.4 0.1 -0.4
v -0.1 0.1 -0.4
v 0.1 0.1 -0.4
v 0.4 0.1 -0.4
v -0.4 0.9 0.0999999
v -0.3 0.9 0.0999999
v 0.3 0.9 0.0999999
v 0.4 0.9 0.0999999
v -0.4 0.9 -0.5
v -0.3 0.9 -0.5
v 0.3 0.9 -0.5
v 0.4 0.9 -0.5
v -0.3 1 -0.4
v 0.3 1 -0.4
v -0.3 1 -0.8
v 0.3 1 -0.8
v -0.1 1.4 0.6
v 0.1 1.4 0.6
v -0.1 1.4 0.3
v 0.1 1.4 0.3
v -0.3 1.6 0.3
v 0.3 1.6 0.3
v -0.1 1.6 0.2
v 0.1 1.6 0.2
v -0.1 1.6 -0.2
v 0.1 1.6 -0.2
v -0.3 1.6 -0.4
v 0.3 1.6 -0.4
v -0.1 1.8 0.2
v 0.1 1.8 0.2
v -0.1 1.8 -0.2
v 0.1 1.8 -0.2

# faces
f 3/1/1 2/1/1 1/1/1
f 4/1/1 2/1/1 3/1/1
f 7/3/1 6/3/1 5/3/1
f 8/3/1 6/3/1 7/3/1
f 12/1/1 10/1/1 9/1/1
f 13/1/1 10/1/1 12/1/1
f 15/3/1 12/3/1 11/3/1
f 15/3/1 14/3/1 13/3/1
f 15/3/1 13/3/1 12/3/1
f 16/3/1 14/3/1 15/3/1
f 17/3/1 15/3/1 11/3/1
f 18/3/1 14/3/1 16/3/1
f 19/3/1 18/3/1 17/3/1
f 20/3/1 14/3/1 18/3/1
f 20/3/1 18/3/1 19/3/1
f 21/3/1 17/3/1 11/3/1
f 21/3/1 19/3/1 17/3/1
f 22/3/1 19/3/1 21/3/1
f 23/3/1 21/3/1 11/3/1
f 23/4/1 22/4/1 21/4/1
f 24/3/1 19/3/1 22/3/1
f 24/4/1 22/4/1 23/4/1
f 25/3/1 23/3/1 11/3/1
f 25/3/1 24/3/1 23/3/1
f 26/3/1 19/3/1 24/3/1
f 26/3/1 24/3/1 25/3/1
f 29/1/1 28/1/1 27/1/1
f 30/1/1 28/1/1 29/1/1
f 34/2/1 32/2/1 31/2/1
f 35/2/1 32/2/1 34/2/1
f 36/1/1 34/1/1 33/1/1
f 36/1/1 35/1/1 34/1/1
f 37/1/1 35/1/1 36/1/1
f 40/2/1 39/2/1 38/2/1
f 41/2/1 39/2/1 40/2/1
f 44/1/1 43/1/1 42/1/1
f 45/1/1 43/1/1 44/1/1
f 48/1/1 47/1/1 46/1/1
f 49/1/1 47/1/1 48/1/1
f 52/1/1 51/1/1 50/1/1
f 53/1/1 51/1/1 52/1/1
f 54/1/2 55/1/2 56/1/2
f 56/1/2 55/1/2 57/1/2
f 58/1/2 59/1/2 60/1/2
f 60/1/2 59/1/2 61/1/2
f 62/1/2 63/1/2 64/1/2
f 64/1/2 63/1/2 65/1/2
f 66/2/2 67/2/2 69/2/2
f 69/2/2 67/2/2 70/2/2
f 68/1/2 69/1/2 71/1/2
f 69/1/2 70/1/2 71/1/2
f 71/1/2 70/1/2 72/1/2
f 73/2/2 74/2/2 75/2/2
f 75/2/2 74/2/2 76/2/2
f 77/1/2 78/1/2 79/1/2
f 79/1/2 78/1/2 80/1/2
f 81/1/2 82/1/2 84/1/2
f 84/1/2 82/1/2 85/1/2
f 83/3/2 84/3/2 87/3/2
f 85/3/2 86/3/2 87/3/2
f 84/3/2 85/3/2 87/3/2
f 87/3/2 86/3/2 88/3/2
f 83/3/2 87/3/2 89/3/2
f 88/3/2 86/3/2 90/3/2
f 89/3/2 90/3/2 91/3/2
f 90/3/2 86/3/2 92/3/2
f 91/3/2 90/3/2 92/3/2
f 83/3/2 89/3/2 93/3/2
f 89/3/2 91/3/2 93/3/2
f 93/3/2 91/3/2 94/3/2
f 83/3/2 93/3/2 95/3/2
f 93/4/2 94/4/2 95/4/2
f 94/3/2 91/3/2 96/3/2
f 95/4/2 94/4/2 96/4/2
f 83/3/2 95/3/2 97/3/2
f 95/3/2 96/3/2 97/3/2
f 96/3/2 91/3/2 98/3/2
f 97/3/2 96/3/2 98/3/2
f 99/1/2 100/1/2 101/1/2
f 101/1/2 100/1/2 102/1/2
f 103/3/2 104/3/2 105/3/2
f 105/3/2 104/3/2 106/3/2
f 109/1/3 108/1/3 107/1/3
f 110/1/3 108/1/3 109/1/3
f 113/2/3 112/2/3 111/2/3
f 114/2/3 112/2/3 113/2/3
f 117/3/3 116/3/3 115/3/3
f 118/3/3 116/3/3 117/3/3
f 119/3/3 116/3/3 118/3/3
f 120/3/3 117/3/3 115/3/3
f 122/3/3 116/3/3 119/3/3
f 123/3/3 121/3/3 120/3/3
f 123/3/3 122/3/3 121/3/3
f 123/3/3 120/3/3 115/3/3
f 124/3/3 116/3/3 122/3/3
f 124/3/3 122/3/3 123/3/3
f 127/2/3 126/2/3 125/2/3
f 128/2/3 126/2/3 127/2/3
f 133/1/3 130/1/3 129/1/3
f 134/1/3 130/1/3 133/1/3
f 135/3/3 132/3/3 131/3/3
f 136/3/3 132/3/3 135/3/3
f 139/1/3 138/1/3 137/1/3
f 140/1/3 138/1/3 139/1/3
f 143/1/3 142/1/3 141/1/3
f 144/1/3 142/1/3 143/1/3
f 149/1/3 146/1/3 145/1/3
f 150/1/3 146/1/3 149/1/3
f 151/3/3 148/3/3 147/3/3
f 152/3/3 148/3/3 151/3/3
f 155/1/3 154/1/3 153/1/3
f 156/1/3 154/1/3 155/1/3
f 159/1/3 158/1/3 157/1/3
f 160/1/3 158/1/3 159/1/3
f 163/1/3 162/1/3 161/1/3
f 164/1/3 162/1/3 163/1/3
f 167/1/3 166/1/3 165/1/3
f 168/1/3 166/1/3 167/1/3
f 169/2/4 170/2/4 171/2/4
f 171/2/4 170/2/4 172/2/4
f 173/1/4 174/1/4 175/1/4
f 175/1/4 174/1/4 176/1/4
f 177/1/4 178/1/4 179/1/4
f 179/1/4 178/1/4 180/1/4
f 181/1/4 182/1/4 185/1/4
f 185/1/4 182/1/4 186/1/4
f 183/3/4 184/3/4 189/3/4
f 189/3/4 184/3/4 190/3/4
f 187/1/4 188/1/4 191/1/4
f 191/1/4 188/1/4 192/1/4
f 193/3/4 194/3/4 195/3/4
f 195/3/4 194/3/4 196/3/4
f 197/3/4 198/3/4 199/3/4
f 199/3/4 198/3/4 200/3/4
f 201/3/4 202/3/4 203/3/4
f 203/3/4 202/3/4 204/3/4
f 213/1/5 206/1/5 205/1/5
f 214/1/5 208/1/5 207/1/5
f 215/1/5 210/1/5 209/1/5
f 216/1/5 212/1/5 211/1/5
f 217/1/5 213/1/5 205/1/5
f 217/1/5 214/1/5 213/1/5
f 218/1/5 208/1/5 214/1/5
f 218/1/5 214/1/5 217/1/5
f 219/1/5 215/1/5 209/1/5
f 219/1/5 216/1/5 215/1/5
f 220/1/5 212/1/5 216/1/5
f 220/1/5 216/1/5 219/1/5
f 223/3/5 222/3/5 221/3/5
f 224/3/5 222/3/5 223/3/5
f 225/3/5 222/3/5 224/3/5
f 226/3/5 222/3/5 225/3/5
f 228/3/5 225/3/5 224/3/5
f 229/3/5 225/3/5 228/3/5
f 231/3/5 228/3/5 227/3/5
f 231/3/5 230/3/5 229/3/5
f 231/3/5 229/3/5 228/3/5
f 232/3/5 230/3/5 231/3/5
f 237/3/5 234/3/5 233/3/5
f 238/3/5 234/3/5 237/3/5
f 239/3/5 236/3/5 235/3/5
f 240/3/5 236/3/5 239/3/5
f 243/2/5 242/2/5 241/2/5
f 244/2/5 242/2/5 243/2/5
f 247/1/5 246/1/5 245/1/5
f 248/1/5 246/1/5 247/1/5
f 249/1/6 250/1/6 257/1/6
f 251/1/6 252/1/6 258/1/6
f 253/1/6 254/1/6 259/1/6
f 255/1/6 256/1/6 260/1/6
f 249/1/6 257/1/6 261/1/6
f 257/1/6 258/1/6 261/1/6
f 258/1/6 252/1/6 262/1/6
f 261/1/6 258/1/6 262/1/6
f 253/1/6 259/1/6 263/1/6
f 259/1/6 260/1/6 263/1/6
f 260/1/6 256/1/6 264/1/6
f 263/1/6 260/1/6 264/1/6
f 249/1/6 261/1/6 265/1/6
f 262/1/6 252/1/6 266/1/6
f 253/1/6 263/1/6 267/1/6
f 264/1/6 256/1/6 268/1/6
f 249/1/6 265/1/6 269/1/6
f 265/1/6 266/1/6 269/1/6
f 266/1/6 252/1/6 270/1/6
f 269/1/6 266/1/6 270/1/6
f 267/1/6 268/1/6 271/1/6
f 253/1/6 267/1/6 271/1/6
f 268/1/6 256/1/6 272/1/6
f 271/1/6 268/1/6 272/1/6
f 273/3/6 274/3/6 277/3/6
f 277/3/6 274/3/6 278/3/6
f 275/3/6 276/3/6 279/3/6
f 279/3/6 276/3/6 280/3/6
f 281/3/6 282/3/6 283/3/6
f 283/3/6 282/3/6 284/3/6
f 285/1/6 286/1/6 287/1/6
f 287/1/6 286/1/6 288/1/6
f 289/3/6 290/3/6 291/3/6
f 291/3/6 290/3/6 292/3/6
f 289/3/6 291/3/6 293/3/6
f 292/3/6 290/3/6 294/3/6
f 289/3/6 293/3/6 295/3/6
f 293/3/6 294/3/6 295/3/6
f 294/3/6 290/3/6 296/3/6
f 295/3/6 294/3/6 296/3/6
f 297/2/6 298/2/6 299/2/6
f 299/2/6 298/2/6 300/2/6
