# MagicaVoxel @ Ephtracy

# group
o 

# material
mtllib RailLight.mtl
usemtl palette

# normals
vn -1 0 0
vn 1 0 0
vn 0 0 1
vn 0 0 -1
vn 0 -1 0
vn 0 1 0

# texcoords
vt 0.0996094 0.5
vt 0.146484 0.5
vt 0.962891 0.5
vt 0.994141 0.5

# verts
v -0.3 1 -0.2
v -0.3 1 -0.3
v -0.3 1.2 -0.2
v -0.3 1.2 -0.3
v -0.2 1 -0.1
v -0.2 1 -0.2
v -0.2 1.1 -0.1
v -0.2 1.1 -0.2
v -0.2 1.2 -0.1
v -0.2 1.2 -0.2
v -0.1 0 -0.3
v -0.1 0 -0.4
v -0.1 0.1 -0.3
v -0.1 0.1 -0.4
v -0.1 0.2 -0.3
v -0.1 0.2 -0.4
v -0.1 0.4 -0.3
v -0.1 0.4 -0.4
v -0.1 0.5 -0.3
v -0.1 0.5 -0.4
v -0.1 0.7 -0.3
v -0.1 0.7 -0.4
v -0.1 0.8 -0.3
v -0.1 0.8 -0.4
v -0.1 1 -0.3
v -0.1 1 -0.4
v -0.1 1.1 -0.3
v -0.1 1.1 -0.4
v -0.1 1.2 -0.3
v -0.1 1.3 -0.3
v -0.1 1.3 -0.4
v -0.1 1.4 -0.3
v -0.1 1.4 -0.4
v 0 1 -0.1
v 0 1 -0.2
v 0 1.1 -0.1
v 0 1.1 -0.2
v 0 1.2 -0.1
v 0 1.2 -0.2
v -0.1 1 -0.1
v -0.1 1 -0.2
v -0.1 1.1 -0.1
v -0.1 1.1 -0.2
v -0.1 1.2 -0.1
v -0.1 1.2 -0.2
v 0 0 -0.3
v 0 0 -0.4
v 0 0.1 -0.3
v 0 0.1 -0.4
v 0 0.2 -0.3
v 0 0.2 -0.4
v 0 0.4 -0.3
v 0 0.4 -0.4
v 0 0.5 -0.3
v 0 0.5 -0.4
v 0 0.7 -0.3
v 0 0.7 -0.4
v 0 0.8 -0.3
v 0 0.8 -0.4
v 0 1 -0.3
v 0 1 -0.4
v 0 1.1 -0.3
v 0 1.1 -0.4
v 0 1.2 -0.3
v 0 1.3 -0.3
v 0 1.3 -0.4
v 0 1.4 -0.3
v 0 1.4 -0.4
v 0.1 1 -0.1
v 0.1 1 -0.2
v 0.1 1.1 -0.1
v 0.1 1.1 -0.2
v 0.1 1.2 -0.1
v 0.1 1.2 -0.2
v 0.2 1 -0.2
v 0.2 1 -0.3
v 0.2 1.2 -0.2
v 0.2 1.2 -0.3
v -0.2 1 -0.1
v -0.2 1.1 -0.1
v -0.2 1.2 -0.1
v -0.1 1 -0.1
v -0.1 1.1 -0.1
v -0.1 1.2 -0.1
v 0 1 -0.1
v 0 1.1 -0.1
v 0 1.2 -0.1
v 0.1 1 -0.1
v 0.1 1.1 -0.1
v 0.1 1.2 -0.1
v -0.3 1 -0.2
v -0.3 1.2 -0.2
v -0.2 1 -0.2
v -0.2 1.1 -0.2
v -0.2 1.2 -0.2
v -0.1 1 -0.2
v -0.1 1.1 -0.2
v -0.1 1.2 -0.2
v 0 1 -0.2
v 0 1.1 -0.2
v 0 1.2 -0.2
v 0.1 1 -0.2
v 0.1 1.1 -0.2
v 0.1 1.2 -0.2
v 0.2 1 -0.2
v 0.2 1.2 -0.2
v -0.1 0 -0.3
v -0.1 0.1 -0.3
v -0.1 0.2 -0.3
v -0.1 0.4 -0.3
v -0.1 0.5 -0.3
v -0.1 0.7 -0.3
v -0.1 0.8 -0.3
v -0.1 1 -0.3
v -0.1 1.2 -0.3
v -0.1 1.3 -0.3
v -0.1 1.4 -0.3
v 0 0 -0.3
v 0 0.1 -0.3
v 0 0.2 -0.3
v 0 0.4 -0.3
v 0 0.5 -0.3
v 0 0.7 -0.3
v 0 0.8 -0.3
v 0 1 -0.3
v 0 1.2 -0.3
v 0 1.3 -0.3
v 0 1.4 -0.3
v -0.3 1 -0.3
v -0.3 1.2 -0.3
v -0.1 1 -0.3
v -0.1 1.1 -0.3
v -0.1 1.2 -0.3
v 0 1 -0.3
v 0 1.1 -0.3
v 0 1.2 -0.3
v 0.2 1 -0.3
v 0.2 1.2 -0.3
v -0.1 0 -0.4
v -0.1 0.1 -0.4
v -0.1 0.2 -0.4
v -0.1 0.4 -0.4
v -0.1 0.5 -0.4
v -0.1 0.7 -0.4
v -0.1 0.8 -0.4
v -0.1 1 -0.4
v -0.1 1.1 -0.4
v -0.1 1.3 -0.4
v -0.1 1.4 -0.4
v 0 0 -0.4
v 0 0.1 -0.4
v 0 0.2 -0.4
v 0 0.4 -0.4
v 0 0.5 -0.4
v 0 0.7 -0.4
v 0 0.8 -0.4
v 0 1 -0.4
v 0 1.1 -0.4
v 0 1.3 -0.4
v 0 1.4 -0.4
v -0.1 0 -0.3
v 0 0 -0.3
v -0.1 0 -0.4
v 0 0 -0.4
v -0.2 1 -0.1
v -0.1 1 -0.1
v 0 1 -0.1
v 0.1 1 -0.1
v -0.3 1 -0.2
v -0.2 1 -0.2
v -0.1 1 -0.2
v 0 1 -0.2
v 0.1 1 -0.2
v 0.2 1 -0.2
v -0.3 1 -0.3
v -0.1 1 -0.3
v 0 1 -0.3
v 0.2 1 -0.3
v -0.2 1.2 -0.1
v -0.1 1.2 -0.1
v 0 1.2 -0.1
v 0.1 1.2 -0.1
v -0.3 1.2 -0.2
v -0.2 1.2 -0.2
v -0.1 1.2 -0.2
v 0 1.2 -0.2
v 0.1 1.2 -0.2
v 0.2 1.2 -0.2
v -0.3 1.2 -0.3
v -0.1 1.2 -0.3
v 0 1.2 -0.3
v 0.2 1.2 -0.3
v -0.1 1.4 -0.3
v 0 1.4 -0.3
v -0.1 1.4 -0.4
v 0 1.4 -0.4

# faces
f 3/4/1 2/4/1 1/4/1
f 4/4/1 2/4/1 3/4/1
f 7/2/1 6/2/1 5/2/1
f 8/2/1 6/2/1 7/2/1
f 9/4/1 8/4/1 7/4/1
f 10/4/1 8/4/1 9/4/1
f 13/1/1 12/1/1 11/1/1
f 14/1/1 12/1/1 13/1/1
f 15/3/1 14/3/1 13/3/1
f 16/3/1 14/3/1 15/3/1
f 17/1/1 16/1/1 15/1/1
f 18/1/1 16/1/1 17/1/1
f 19/3/1 18/3/1 17/3/1
f 20/3/1 18/3/1 19/3/1
f 21/1/1 20/1/1 19/1/1
f 22/1/1 20/1/1 21/1/1
f 23/3/1 22/3/1 21/3/1
f 24/3/1 22/3/1 23/3/1
f 25/1/1 24/1/1 23/1/1
f 26/1/1 24/1/1 25/1/1
f 27/3/1 26/3/1 25/3/1
f 28/3/1 26/3/1 27/3/1
f 29/1/1 28/1/1 27/1/1
f 30/1/1 28/1/1 29/1/1
f 31/1/1 28/1/1 30/1/1
f 32/3/1 31/3/1 30/3/1
f 33/3/1 31/3/1 32/3/1
f 36/2/1 35/2/1 34/2/1
f 37/2/1 35/2/1 36/2/1
f 38/4/1 37/4/1 36/4/1
f 39/4/1 37/4/1 38/4/1
f 40/2/2 41/2/2 42/2/2
f 42/2/2 41/2/2 43/2/2
f 42/4/2 43/4/2 44/4/2
f 44/4/2 43/4/2 45/4/2
f 46/1/2 47/1/2 48/1/2
f 48/1/2 47/1/2 49/1/2
f 48/3/2 49/3/2 50/3/2
f 50/3/2 49/3/2 51/3/2
f 50/1/2 51/1/2 52/1/2
f 52/1/2 51/1/2 53/1/2
f 52/3/2 53/3/2 54/3/2
f 54/3/2 53/3/2 55/3/2
f 54/1/2 55/1/2 56/1/2
f 56/1/2 55/1/2 57/1/2
f 56/3/2 57/3/2 58/3/2
f 58/3/2 57/3/2 59/3/2
f 58/1/2 59/1/2 60/1/2
f 60/1/2 59/1/2 61/1/2
f 60/3/2 61/3/2 62/3/2
f 62/3/2 61/3/2 63/3/2
f 62/1/2 63/1/2 64/1/2
f 64/1/2 63/1/2 65/1/2
f 65/1/2 63/1/2 66/1/2
f 65/3/2 66/3/2 67/3/2
f 67/3/2 66/3/2 68/3/2
f 69/2/2 70/2/2 71/2/2
f 71/2/2 70/2/2 72/2/2
f 71/4/2 72/4/2 73/4/2
f 73/4/2 72/4/2 74/4/2
f 75/4/2 76/4/2 77/4/2
f 77/4/2 76/4/2 78/4/2
f 82/2/3 80/2/3 79/2/3
f 83/4/3 81/4/3 80/4/3
f 83/2/3 80/2/3 82/2/3
f 84/4/3 81/4/3 83/4/3
f 88/2/3 86/2/3 85/2/3
f 89/4/3 87/4/3 86/4/3
f 89/2/3 86/2/3 88/2/3
f 90/4/3 87/4/3 89/4/3
f 93/4/3 92/4/3 91/4/3
f 94/4/3 92/4/3 93/4/3
f 95/4/3 92/4/3 94/4/3
f 99/4/3 97/4/3 96/4/3
f 99/4/3 98/4/3 97/4/3
f 100/4/3 98/4/3 99/4/3
f 101/4/3 98/4/3 100/4/3
f 105/4/3 103/4/3 102/4/3
f 105/4/3 104/4/3 103/4/3
f 106/4/3 104/4/3 105/4/3
f 118/1/3 108/1/3 107/1/3
f 119/3/3 109/3/3 108/3/3
f 119/1/3 108/1/3 118/1/3
f 120/1/3 110/1/3 109/1/3
f 120/3/3 109/3/3 119/3/3
f 121/3/3 111/3/3 110/3/3
f 121/1/3 110/1/3 120/1/3
f 122/1/3 112/1/3 111/1/3
f 122/3/3 111/3/3 121/3/3
f 123/3/3 113/3/3 112/3/3
f 123/1/3 112/1/3 122/1/3
f 124/1/3 114/1/3 113/1/3
f 124/3/3 113/3/3 123/3/3
f 125/1/3 114/1/3 124/1/3
f 126/1/3 116/1/3 115/1/3
f 127/3/3 117/3/3 116/3/3
f 127/1/3 116/1/3 126/1/3
f 128/3/3 117/3/3 127/3/3
f 129/4/4 130/4/4 131/4/4
f 131/4/4 130/4/4 132/4/4
f 132/4/4 130/4/4 133/4/4
f 134/4/4 135/4/4 137/4/4
f 135/4/4 136/4/4 137/4/4
f 137/4/4 136/4/4 138/4/4
f 139/1/4 140/1/4 150/1/4
f 140/3/4 141/3/4 151/3/4
f 150/1/4 140/1/4 151/1/4
f 141/1/4 142/1/4 152/1/4
f 151/3/4 141/3/4 152/3/4
f 142/3/4 143/3/4 153/3/4
f 152/1/4 142/1/4 153/1/4
f 143/1/4 144/1/4 154/1/4
f 153/3/4 143/3/4 154/3/4
f 144/3/4 145/3/4 155/3/4
f 154/1/4 144/1/4 155/1/4
f 145/1/4 146/1/4 156/1/4
f 155/3/4 145/3/4 156/3/4
f 146/3/4 147/3/4 157/3/4
f 156/1/4 146/1/4 157/1/4
f 147/1/4 148/1/4 158/1/4
f 157/3/4 147/3/4 158/3/4
f 148/3/4 149/3/4 159/3/4
f 158/1/4 148/1/4 159/1/4
f 159/3/4 149/3/4 160/3/4
f 163/1/5 162/1/5 161/1/5
f 164/1/5 162/1/5 163/1/5
f 170/2/5 166/2/5 165/2/5
f 171/2/5 166/2/5 170/2/5
f 172/2/5 168/2/5 167/2/5
f 173/2/5 168/2/5 172/2/5
f 175/4/5 171/4/5 170/4/5
f 175/4/5 174/4/5 173/4/5
f 175/4/5 173/4/5 172/4/5
f 175/4/5 172/4/5 171/4/5
f 175/4/5 170/4/5 169/4/5
f 176/4/5 174/4/5 175/4/5
f 177/4/5 174/4/5 176/4/5
f 178/4/5 174/4/5 177/4/5
f 179/4/6 180/4/6 184/4/6
f 184/4/6 180/4/6 185/4/6
f 181/4/6 182/4/6 186/4/6
f 186/4/6 182/4/6 187/4/6
f 184/4/6 185/4/6 189/4/6
f 187/4/6 188/4/6 189/4/6
f 186/4/6 187/4/6 189/4/6
f 185/4/6 186/4/6 189/4/6
f 183/4/6 184/4/6 189/4/6
f 189/4/6 188/4/6 190/4/6
f 190/4/6 188/4/6 191/4/6
f 191/4/6 188/4/6 192/4/6
f 193/3/6 194/3/6 195/3/6
f 195/3/6 194/3/6 196/3/6
