# MagicaVoxel @ Ephtracy

# group
o 

# material
mtllib Rails.mtl
usemtl palette

# normals
vn -1 0 0
vn 1 0 0
vn 0 0 1
vn 0 0 -1
vn 0 -1 0
vn 0 1 0

# texcoords
vt 0.279297 0.5
vt 0.935547 0.5

# verts
v -1.4 0.1 0.3
v -1.4 0.1 0.2
v -1.4 0.1 -0.2
v -1.4 0.1 -0.3
v -1.4 0.2 0.3
v -1.4 0.2 0.2
v -1.4 0.2 -0.2
v -1.4 0.2 -0.3
v -1.1 0 0.4
v -1.1 0 -0.4
v -1.1 0.1 0.4
v -1.1 0.1 0.3
v -1.1 0.1 0.2
v -1.1 0.1 -0.2
v -1.1 0.1 -0.3
v -1.1 0.1 -0.4
v -0.4 0 0.4
v -0.4 0 -0.4
v -0.4 0.1 0.4
v -0.4 0.1 0.3
v -0.4 0.1 0.2
v -0.4 0.1 -0.2
v -0.4 0.1 -0.3
v -0.4 0.1 -0.4
v 0.3 0 0.4
v 0.3 0 -0.4
v 0.3 0.1 0.4
v 0.3 0.1 0.3
v 0.3 0.1 0.2
v 0.3 0.1 -0.2
v 0.3 0.1 -0.3
v 0.3 0.1 -0.4
v 1 0 0.4
v 1 0 -0.4
v 1 0.1 0.4
v 1 0.1 0.3
v 1 0.1 0.2
v 1 0.1 -0.2
v 1 0.1 -0.3
v 1 0.1 -0.4
v -1 0 0.4
v -1 0 -0.4
v -1 0.1 0.4
v -1 0.1 0.3
v -1 0.1 0.2
v -1 0.1 -0.2
v -1 0.1 -0.3
v -1 0.1 -0.4
v -0.3 0 0.4
v -0.3 0 -0.4
v -0.3 0.1 0.4
v -0.3 0.1 0.3
v -0.3 0.1 0.2
v -0.3 0.1 -0.2
v -0.3 0.1 -0.3
v -0.3 0.1 -0.4
v 0.4 0 0.4
v 0.4 0 -0.4
v 0.4 0.1 0.4
v 0.4 0.1 0.3
v 0.4 0.1 0.2
v 0.4 0.1 -0.2
v 0.4 0.1 -0.3
v 0.4 0.1 -0.4
v 1.1 0 0.4
v 1.1 0 -0.4
v 1.1 0.1 0.4
v 1.1 0.1 0.3
v 1.1 0.1 0.2
v 1.1 0.1 -0.2
v 1.1 0.1 -0.3
v 1.1 0.1 -0.4
v 1.4 0.1 0.3
v 1.4 0.1 0.2
v 1.4 0.1 -0.2
v 1.4 0.1 -0.3
v 1.4 0.2 0.3
v 1.4 0.2 0.2
v 1.4 0.2 -0.2
v 1.4 0.2 -0.3
v -1.1 0 0.4
v -1.1 0.1 0.4
v -1 0 0.4
v -1 0.1 0.4
v -0.4 0 0.4
v -0.4 0.1 0.4
v -0.3 0 0.4
v -0.3 0.1 0.4
v 0.3 0 0.4
v 0.3 0.1 0.4
v 0.4 0 0.4
v 0.4 0.1 0.4
v 1 0 0.4
v 1 0.1 0.4
v 1.1 0 0.4
v 1.1 0.1 0.4
v -1.4 0.1 0.3
v -1.4 0.2 0.3
v -1.1 0.1 0.3
v -1 0.1 0.3
v -0.4 0.1 0.3
v -0.3 0.1 0.3
v 0.3 0.1 0.3
v 0.4 0.1 0.3
v 1 0.1 0.3
v 1.1 0.1 0.3
v 1.4 0.1 0.3
v 1.4 0.2 0.3
v -1.4 0.1 -0.2
v -1.4 0.2 -0.2
v -1.1 0.1 -0.2
v -1 0.1 -0.2
v -0.4 0.1 -0.2
v -0.3 0.1 -0.2
v 0.3 0.1 -0.2
v 0.4 0.1 -0.2
v 1 0.1 -0.2
v 1.1 0.1 -0.2
v 1.4 0.1 -0.2
v 1.4 0.2 -0.2
v -1.4 0.1 0.2
v -1.4 0.2 0.2
v -1.1 0.1 0.2
v -1 0.1 0.2
v -0.4 0.1 0.2
v -0.3 0.1 0.2
v 0.3 0.1 0.2
v 0.4 0.1 0.2
v 1 0.1 0.2
v 1.1 0.1 0.2
v 1.4 0.1 0.2
v 1.4 0.2 0.2
v -1.4 0.1 -0.3
v -1.4 0.2 -0.3
v -1.1 0.1 -0.3
v -1 0.1 -0.3
v -0.4 0.1 -0.3
v -0.3 0.1 -0.3
v 0.3 0.1 -0.3
v 0.4 0.1 -0.3
v 1 0.1 -0.3
v 1.1 0.1 -0.3
v 1.4 0.1 -0.3
v 1.4 0.2 -0.3
v -1.1 0 -0.4
v -1.1 0.1 -0.4
v -1 0 -0.4
v -1 0.1 -0.4
v -0.4 0 -0.4
v -0.4 0.1 -0.4
v -0.3 0 -0.4
v -0.3 0.1 -0.4
v 0.3 0 -0.4
v 0.3 0.1 -0.4
v 0.4 0 -0.4
v 0.4 0.1 -0.4
v 1 0 -0.4
v 1 0.1 -0.4
v 1.1 0 -0.4
v 1.1 0.1 -0.4
v -1.1 0 0.4
v -1 0 0.4
v -0.4 0 0.4
v -0.3 0 0.4
v 0.3 0 0.4
v 0.4 0 0.4
v 1 0 0.4
v 1.1 0 0.4
v -1.1 0 -0.4
v -1 0 -0.4
v -0.4 0 -0.4
v -0.3 0 -0.4
v 0.3 0 -0.4
v 0.4 0 -0.4
v 1 0 -0.4
v 1.1 0 -0.4
v -1.4 0.1 0.3
v -1.1 0.1 0.3
v -1 0.1 0.3
v -0.4 0.1 0.3
v -0.3 0.1 0.3
v 0.3 0.1 0.3
v 0.4 0.1 0.3
v 1 0.1 0.3
v 1.1 0.1 0.3
v 1.4 0.1 0.3
v -1.4 0.1 0.2
v -1.1 0.1 0.2
v -1 0.1 0.2
v -0.4 0.1 0.2
v -0.3 0.1 0.2
v 0.3 0.1 0.2
v 0.4 0.1 0.2
v 1 0.1 0.2
v 1.1 0.1 0.2
v 1.4 0.1 0.2
v -1.4 0.1 -0.2
v -1.1 0.1 -0.2
v -1 0.1 -0.2
v -0.4 0.1 -0.2
v -0.3 0.1 -0.2
v 0.3 0.1 -0.2
v 0.4 0.1 -0.2
v 1 0.1 -0.2
v 1.1 0.1 -0.2
v 1.4 0.1 -0.2
v -1.4 0.1 -0.3
v -1.1 0.1 -0.3
v -1 0.1 -0.3
v -0.4 0.1 -0.3
v -0.3 0.1 -0.3
v 0.3 0.1 -0.3
v 0.4 0.1 -0.3
v 1 0.1 -0.3
v 1.1 0.1 -0.3
v 1.4 0.1 -0.3
v -1.1 0.1 0.4
v -1 0.1 0.4
v -0.4 0.1 0.4
v -0.3 0.1 0.4
v 0.3 0.1 0.4
v 0.4 0.1 0.4
v 1 0.1 0.4
v 1.1 0.1 0.4
v -1.1 0.1 0.3
v -1 0.1 0.3
v -0.4 0.1 0.3
v -0.3 0.1 0.3
v 0.3 0.1 0.3
v 0.4 0.1 0.3
v 1 0.1 0.3
v 1.1 0.1 0.3
v -1.1 0.1 0.2
v -1 0.1 0.2
v -0.4 0.1 0.2
v -0.3 0.1 0.2
v 0.3 0.1 0.2
v 0.4 0.1 0.2
v 1 0.1 0.2
v 1.1 0.1 0.2
v -1.1 0.1 -0.2
v -1 0.1 -0.2
v -0.4 0.1 -0.2
v -0.3 0.1 -0.2
v 0.3 0.1 -0.2
v 0.4 0.1 -0.2
v 1 0.1 -0.2
v 1.1 0.1 -0.2
v -1.1 0.1 -0.3
v -1 0.1 -0.3
v -0.4 0.1 -0.3
v -0.3 0.1 -0.3
v 0.3 0.1 -0.3
v 0.4 0.1 -0.3
v 1 0.1 -0.3
v 1.1 0.1 -0.3
v -1.1 0.1 -0.4
v -1 0.1 -0.4
v -0.4 0.1 -0.4
v -0.3 0.1 -0.4
v 0.3 0.1 -0.4
v 0.4 0.1 -0.4
v 1 0.1 -0.4
v 1.1 0.1 -0.4
v -1.4 0.2 0.3
v 1.4 0.2 0.3
v -1.4 0.2 0.2
v 1.4 0.2 0.2
v -1.4 0.2 -0.2
v 1.4 0.2 -0.2
v -1.4 0.2 -0.3
v 1.4 0.2 -0.3

# faces
f 5/2/1 2/2/1 1/2/1
f 6/2/1 2/2/1 5/2/1
f 7/2/1 4/2/1 3/2/1
f 8/2/1 4/2/1 7/2/1
f 11/1/1 10/1/1 9/1/1
f 12/1/1 10/1/1 11/1/1
f 13/1/1 10/1/1 12/1/1
f 14/1/1 10/1/1 13/1/1
f 15/1/1 10/1/1 14/1/1
f 16/1/1 10/1/1 15/1/1
f 19/1/1 18/1/1 17/1/1
f 20/1/1 18/1/1 19/1/1
f 21/1/1 18/1/1 20/1/1
f 22/1/1 18/1/1 21/1/1
f 23/1/1 18/1/1 22/1/1
f 24/1/1 18/1/1 23/1/1
f 27/1/1 26/1/1 25/1/1
f 28/1/1 26/1/1 27/1/1
f 29/1/1 26/1/1 28/1/1
f 30/1/1 26/1/1 29/1/1
f 31/1/1 26/1/1 30/1/1
f 32/1/1 26/1/1 31/1/1
f 35/1/1 34/1/1 33/1/1
f 36/1/1 34/1/1 35/1/1
f 37/1/1 34/1/1 36/1/1
f 38/1/1 34/1/1 37/1/1
f 39/1/1 34/1/1 38/1/1
f 40/1/1 34/1/1 39/1/1
f 41/1/2 42/1/2 43/1/2
f 43/1/2 42/1/2 44/1/2
f 44/1/2 42/1/2 45/1/2
f 45/1/2 42/1/2 46/1/2
f 46/1/2 42/1/2 47/1/2
f 47/1/2 42/1/2 48/1/2
f 49/1/2 50/1/2 51/1/2
f 51/1/2 50/1/2 52/1/2
f 52/1/2 50/1/2 53/1/2
f 53/1/2 50/1/2 54/1/2
f 54/1/2 50/1/2 55/1/2
f 55/1/2 50/1/2 56/1/2
f 57/1/2 58/1/2 59/1/2
f 59/1/2 58/1/2 60/1/2
f 60/1/2 58/1/2 61/1/2
f 61/1/2 58/1/2 62/1/2
f 62/1/2 58/1/2 63/1/2
f 63/1/2 58/1/2 64/1/2
f 65/1/2 66/1/2 67/1/2
f 67/1/2 66/1/2 68/1/2
f 68/1/2 66/1/2 69/1/2
f 69/1/2 66/1/2 70/1/2
f 70/1/2 66/1/2 71/1/2
f 71/1/2 66/1/2 72/1/2
f 73/2/2 74/2/2 77/2/2
f 77/2/2 74/2/2 78/2/2
f 75/2/2 76/2/2 79/2/2
f 79/2/2 76/2/2 80/2/2
f 83/1/3 82/1/3 81/1/3
f 84/1/3 82/1/3 83/1/3
f 87/1/3 86/1/3 85/1/3
f 88/1/3 86/1/3 87/1/3
f 91/1/3 90/1/3 89/1/3
f 92/1/3 90/1/3 91/1/3
f 95/1/3 94/1/3 93/1/3
f 96/1/3 94/1/3 95/1/3
f 99/2/3 98/2/3 97/2/3
f 100/2/3 98/2/3 99/2/3
f 101/2/3 98/2/3 100/2/3
f 102/2/3 98/2/3 101/2/3
f 103/2/3 98/2/3 102/2/3
f 104/2/3 98/2/3 103/2/3
f 105/2/3 98/2/3 104/2/3
f 106/2/3 98/2/3 105/2/3
f 107/2/3 98/2/3 106/2/3
f 108/2/3 98/2/3 107/2/3
f 111/2/3 110/2/3 109/2/3
f 112/2/3 110/2/3 111/2/3
f 113/2/3 110/2/3 112/2/3
f 114/2/3 110/2/3 113/2/3
f 115/2/3 110/2/3 114/2/3
f 116/2/3 110/2/3 115/2/3
f 117/2/3 110/2/3 116/2/3
f 118/2/3 110/2/3 117/2/3
f 119/2/3 110/2/3 118/2/3
f 120/2/3 110/2/3 119/2/3
f 121/2/4 122/2/4 123/2/4
f 123/2/4 122/2/4 124/2/4
f 124/2/4 122/2/4 125/2/4
f 125/2/4 122/2/4 126/2/4
f 126/2/4 122/2/4 127/2/4
f 127/2/4 122/2/4 128/2/4
f 128/2/4 122/2/4 129/2/4
f 129/2/4 122/2/4 130/2/4
f 130/2/4 122/2/4 131/2/4
f 131/2/4 122/2/4 132/2/4
f 133/2/4 134/2/4 135/2/4
f 135/2/4 134/2/4 136/2/4
f 136/2/4 134/2/4 137/2/4
f 137/2/4 134/2/4 138/2/4
f 138/2/4 134/2/4 139/2/4
f 139/2/4 134/2/4 140/2/4
f 140/2/4 134/2/4 141/2/4
f 141/2/4 134/2/4 142/2/4
f 142/2/4 134/2/4 143/2/4
f 143/2/4 134/2/4 144/2/4
f 145/1/4 146/1/4 147/1/4
f 147/1/4 146/1/4 148/1/4
f 149/1/4 150/1/4 151/1/4
f 151/1/4 150/1/4 152/1/4
f 153/1/4 154/1/4 155/1/4
f 155/1/4 154/1/4 156/1/4
f 157/1/4 158/1/4 159/1/4
f 159/1/4 158/1/4 160/1/4
f 169/1/5 162/1/5 161/1/5
f 170/1/5 162/1/5 169/1/5
f 171/1/5 164/1/5 163/1/5
f 172/1/5 164/1/5 171/1/5
f 173/1/5 166/1/5 165/1/5
f 174/1/5 166/1/5 173/1/5
f 175/1/5 168/1/5 167/1/5
f 176/1/5 168/1/5 175/1/5
f 187/2/5 178/2/5 177/2/5
f 188/2/5 178/2/5 187/2/5
f 189/2/5 180/2/5 179/2/5
f 190/2/5 180/2/5 189/2/5
f 191/2/5 182/2/5 181/2/5
f 192/2/5 182/2/5 191/2/5
f 193/2/5 184/2/5 183/2/5
f 194/2/5 184/2/5 193/2/5
f 195/2/5 186/2/5 185/2/5
f 196/2/5 186/2/5 195/2/5
f 207/2/5 198/2/5 197/2/5
f 208/2/5 198/2/5 207/2/5
f 209/2/5 200/2/5 199/2/5
f 210/2/5 200/2/5 209/2/5
f 211/2/5 202/2/5 201/2/5
f 212/2/5 202/2/5 211/2/5
f 213/2/5 204/2/5 203/2/5
f 214/2/5 204/2/5 213/2/5
f 215/2/5 206/2/5 205/2/5
f 216/2/5 206/2/5 215/2/5
f 217/1/6 218/1/6 225/1/6
f 225/1/6 218/1/6 226/1/6
f 219/1/6 220/1/6 227/1/6
f 227/1/6 220/1/6 228/1/6
f 221/1/6 222/1/6 229/1/6
f 229/1/6 222/1/6 230/1/6
f 223/1/6 224/1/6 231/1/6
f 231/1/6 224/1/6 232/1/6
f 233/1/6 234/1/6 241/1/6
f 241/1/6 234/1/6 242/1/6
f 235/1/6 236/1/6 243/1/6
f 243/1/6 236/1/6 244/1/6
f 237/1/6 238/1/6 245/1/6
f 245/1/6 238/1/6 246/1/6
f 239/1/6 240/1/6 247/1/6
f 247/1/6 240/1/6 248/1/6
f 249/1/6 250/1/6 257/1/6
f 257/1/6 250/1/6 258/1/6
f 251/1/6 252/1/6 259/1/6
f 259/1/6 252/1/6 260/1/6
f 253/1/6 254/1/6 261/1/6
f 261/1/6 254/1/6 262/1/6
f 255/1/6 256/1/6 263/1/6
f 263/1/6 256/1/6 264/1/6
f 265/2/6 266/2/6 267/2/6
f 267/2/6 266/2/6 268/2/6
f 269/2/6 270/2/6 271/2/6
f 271/2/6 270/2/6 272/2/6
