# MagicaVoxel @ Ephtracy

# group
o 

# material
mtllib EagleBody.mtl
usemtl palette

# normals
vn -1 0 0
vn 1 0 0
vn 0 0 1
vn 0 0 -1
vn 0 -1 0
vn 0 1 0

# texcoords
vt 0.431641 0.5
vt 0.908203 0.5
vt 0.958984 0.5
vt 0.990234 0.5

# verts
v -1 0 0
v -1 0 -0.1
v -1 0.3 0
v -1 0.3 -0.1
v -0.8 0.1 0.1
v -0.8 0.1 0
v -0.8 0.1 -0.1
v -0.8 0.1 -0.2
v -0.8 0.3 0
v -0.8 0.3 -0.1
v -0.8 0.5 0.1
v -0.8 0.5 -0.2
v 1 0.4 0.1
v 1 0.4 -0.2
v 1 0.5 0.1
v 1 0.5 -0.2
v -0.9 0 0
v -0.9 0 -0.1
v -0.9 0.1 0
v -0.9 0.1 -0.1
v 0.6 0.1 0
v 0.6 0.1 -0.1
v 0.6 0.2 0.1
v 0.6 0.2 0
v 0.6 0.2 -0.1
v 0.6 0.2 -0.2
v 0.6 0.3 0.1
v 0.6 0.3 -0.2
v 0.6 0.4 0.1
v 0.6 0.4 -0.2
v 0.6 0.5 0.1
v 0.6 0.5 -0.2
v 0.8 0.1 0.1
v 0.8 0.1 0
v 0.8 0.1 -0.1
v 0.8 0.1 -0.2
v 0.8 0.2 0.1
v 0.8 0.2 0
v 0.8 0.2 -0.1
v 0.8 0.2 -0.2
v 1.1 0.3 0.1
v 1.1 0.3 -0.2
v 1.1 0.5 0.1
v 1.1 0.5 -0.2
v -0.8 0.1 0.1
v -0.8 0.5 0.1
v -0.7 0.3 0.1
v -0.7 0.4 0.1
v -0.6 0.3 0.1
v -0.6 0.4 0.1
v -0.4 0.1 0.1
v -0.4 0.5 0.1
v 0.6 0.1 0.1
v 0.6 0.2 0.1
v 0.6 0.3 0.1
v 0.6 0.4 0.1
v 0.6 0.5 0.1
v 0.8 0.1 0.1
v 0.8 0.2 0.1
v 1 0.4 0.1
v 1 0.5 0.1
v 1.1 0.3 0.1
v 1.1 0.5 0.1
v -1 0 0
v -1 0.3 0
v -0.9 0 0
v -0.9 0.1 0
v -0.8 0.1 0
v -0.8 0.3 0
v 0.6 0.1 -0.1
v 0.6 0.2 -0.1
v 0.8 0.1 -0.1
v 0.8 0.2 -0.1
v 0.6 0.1 0
v 0.6 0.2 0
v 0.8 0.1 0
v 0.8 0.2 0
v -1 0 -0.1
v -1 0.3 -0.1
v -0.9 0 -0.1
v -0.9 0.1 -0.1
v -0.8 0.1 -0.1
v -0.8 0.3 -0.1
v -0.8 0.1 -0.2
v -0.8 0.5 -0.2
v -0.7 0.3 -0.2
v -0.7 0.4 -0.2
v -0.6 0.3 -0.2
v -0.6 0.4 -0.2
v -0.4 0.1 -0.2
v -0.4 0.5 -0.2
v 0.6 0.1 -0.2
v 0.6 0.2 -0.2
v 0.6 0.3 -0.2
v 0.6 0.4 -0.2
v 0.6 0.5 -0.2
v 0.8 0.1 -0.2
v 0.8 0.2 -0.2
v 1 0.4 -0.2
v 1 0.5 -0.2
v 1.1 0.3 -0.2
v 1.1 0.5 -0.2
v -1 0 0
v -0.9 0 0
v -1 0 -0.1
v -0.9 0 -0.1
v -0.8 0.1 0.1
v -0.4 0.1 0.1
v 0.6 0.1 0.1
v 0.8 0.1 0.1
v -0.9 0.1 0
v -0.8 0.1 0
v 0.6 0.1 0
v 0.8 0.1 0
v -0.9 0.1 -0.1
v -0.8 0.1 -0.1
v 0.6 0.1 -0.1
v 0.8 0.1 -0.1
v -0.8 0.1 -0.2
v -0.4 0.1 -0.2
v 0.6 0.1 -0.2
v 0.8 0.1 -0.2
v 0.6 0.3 0.1
v 1.1 0.3 0.1
v 0.6 0.3 -0.2
v 1.1 0.3 -0.2
v 0.6 0.2 0.1
v 0.8 0.2 0.1
v 0.6 0.2 0
v 0.8 0.2 0
v 0.6 0.2 -0.1
v 0.8 0.2 -0.1
v 0.6 0.2 -0.2
v 0.8 0.2 -0.2
v -1 0.3 0
v -0.8 0.3 0
v -1 0.3 -0.1
v -0.8 0.3 -0.1
v 0.6 0.4 0.1
v 1 0.4 0.1
v 0.6 0.4 -0.2
v 1 0.4 -0.2
v -0.8 0.5 0.1
v -0.4 0.5 0.1
v 0.6 0.5 0.1
v 1 0.5 0.1
v 1.1 0.5 0.1
v -0.8 0.5 -0.2
v -0.4 0.5 -0.2
v 0.6 0.5 -0.2
v 1 0.5 -0.2
v 1.1 0.5 -0.2

# faces
f 3/1/1 2/1/1 1/1/1
f 4/1/1 2/1/1 3/1/1
f 9/3/1 6/3/1 5/3/1
f 10/3/1 8/3/1 7/3/1
f 11/3/1 9/3/1 5/3/1
f 11/3/1 10/3/1 9/3/1
f 12/3/1 8/3/1 10/3/1
f 12/3/1 10/3/1 11/3/1
f 15/3/1 14/3/1 13/3/1
f 16/3/1 14/3/1 15/3/1
f 17/1/2 18/1/2 19/1/2
f 19/1/2 18/1/2 20/1/2
f 21/2/2 22/2/2 24/2/2
f 24/2/2 22/2/2 25/2/2
f 23/2/2 24/2/2 27/2/2
f 25/2/2 26/2/2 27/2/2
f 24/2/2 25/2/2 27/2/2
f 27/2/2 26/2/2 28/2/2
f 29/2/2 30/2/2 31/2/2
f 31/2/2 30/2/2 32/2/2
f 33/1/2 34/1/2 37/1/2
f 37/1/2 34/1/2 38/1/2
f 35/1/2 36/1/2 39/1/2
f 39/1/2 36/1/2 40/1/2
f 41/3/2 42/3/2 43/3/2
f 43/3/2 42/3/2 44/3/2
f 47/3/3 46/3/3 45/3/3
f 48/3/3 46/3/3 47/3/3
f 49/3/3 47/3/3 45/3/3
f 49/4/3 48/4/3 47/4/3
f 50/3/3 46/3/3 48/3/3
f 50/4/3 48/4/3 49/4/3
f 51/3/3 49/3/3 45/3/3
f 51/3/3 50/3/3 49/3/3
f 52/3/3 46/3/3 50/3/3
f 52/3/3 50/3/3 51/3/3
f 53/2/3 52/2/3 51/2/3
f 54/2/3 52/2/3 53/2/3
f 55/2/3 52/2/3 54/2/3
f 56/2/3 52/2/3 55/2/3
f 57/2/3 52/2/3 56/2/3
f 58/1/3 54/1/3 53/1/3
f 59/1/3 54/1/3 58/1/3
f 60/3/3 56/3/3 55/3/3
f 62/3/3 60/3/3 55/3/3
f 62/3/3 61/3/3 60/3/3
f 63/3/3 61/3/3 62/3/3
f 66/1/3 65/1/3 64/1/3
f 67/1/3 65/1/3 66/1/3
f 68/1/3 65/1/3 67/1/3
f 69/1/3 65/1/3 68/1/3
f 72/1/3 71/1/3 70/1/3
f 73/1/3 71/1/3 72/1/3
f 74/1/4 75/1/4 76/1/4
f 76/1/4 75/1/4 77/1/4
f 78/1/4 79/1/4 80/1/4
f 80/1/4 79/1/4 81/1/4
f 81/1/4 79/1/4 82/1/4
f 82/1/4 79/1/4 83/1/4
f 84/3/4 85/3/4 86/3/4
f 86/3/4 85/3/4 87/3/4
f 84/3/4 86/3/4 88/3/4
f 86/4/4 87/4/4 88/4/4
f 87/3/4 85/3/4 89/3/4
f 88/4/4 87/4/4 89/4/4
f 84/3/4 88/3/4 90/3/4
f 88/3/4 89/3/4 90/3/4
f 89/3/4 85/3/4 91/3/4
f 90/3/4 89/3/4 91/3/4
f 90/2/4 91/2/4 92/2/4
f 92/2/4 91/2/4 93/2/4
f 93/2/4 91/2/4 94/2/4
f 94/2/4 91/2/4 95/2/4
f 95/2/4 91/2/4 96/2/4
f 92/1/4 93/1/4 97/1/4
f 97/1/4 93/1/4 98/1/4
f 94/3/4 95/3/4 99/3/4
f 94/3/4 99/3/4 101/3/4
f 99/3/4 100/3/4 101/3/4
f 101/3/4 100/3/4 102/3/4
f 105/1/5 104/1/5 103/1/5
f 106/1/5 104/1/5 105/1/5
f 112/3/5 108/3/5 107/3/5
f 113/1/5 110/1/5 109/1/5
f 113/2/5 109/2/5 108/2/5
f 114/1/5 110/1/5 113/1/5
f 115/1/5 112/1/5 111/1/5
f 116/3/5 108/3/5 112/3/5
f 116/1/5 112/1/5 115/1/5
f 117/2/5 113/2/5 108/2/5
f 119/3/5 108/3/5 116/3/5
f 120/2/5 117/2/5 108/2/5
f 120/3/5 108/3/5 119/3/5
f 121/1/5 118/1/5 117/1/5
f 121/2/5 117/2/5 120/2/5
f 122/1/5 118/1/5 121/1/5
f 125/3/5 124/3/5 123/3/5
f 126/3/5 124/3/5 125/3/5
f 127/1/6 128/1/6 129/1/6
f 129/1/6 128/1/6 130/1/6
f 131/1/6 132/1/6 133/1/6
f 133/1/6 132/1/6 134/1/6
f 135/1/6 136/1/6 137/1/6
f 137/1/6 136/1/6 138/1/6
f 139/3/6 140/3/6 141/3/6
f 141/3/6 140/3/6 142/3/6
f 143/3/6 144/3/6 148/3/6
f 144/2/6 145/2/6 149/2/6
f 148/3/6 144/3/6 149/3/6
f 149/2/6 145/2/6 150/2/6
f 146/3/6 147/3/6 151/3/6
f 151/3/6 147/3/6 152/3/6
