# MagicaVoxel @ Ephtracy

# group
o 

# material
mtllib Flowers.mtl
usemtl palette

# normals
vn -1 0 0
vn 1 0 0
vn 0 0 1
vn 0 0 -1
vn 0 -1 0
vn 0 1 0

# texcoords
vt 0.0410156 0.5
vt 0.275391 0.5
vt 0.904297 0.5

# verts
v -0.3 0.3 -0.2
v -0.3 0.3 -0.3
v -0.3 0.4 -0.2
v -0.3 0.4 -0.3
v -0.2 0 -0.2
v -0.2 0 -0.3
v -0.2 0.2 0.0999999
v -0.2 0.2 -5.21541e-008
v -0.2 0.3 0.0999999
v -0.2 0.3 -5.21541e-008
v -0.2 0.3 -0.1
v -0.2 0.3 -0.2
v -0.2 0.3 -0.3
v -0.2 0.3 -0.4
v -0.2 0.4 -0.1
v -0.2 0.4 -0.2
v -0.2 0.4 -0.3
v -0.2 0.4 -0.4
v -0.1 0 0.0999999
v -0.1 0 -5.21541e-008
v -0.1 0.2 0.2
v -0.1 0.2 0.0999999
v -0.1 0.2 -5.21541e-008
v -0.1 0.2 -0.1
v -0.1 0.3 0.2
v -0.1 0.3 0.0999999
v -0.1 0.3 -5.21541e-008
v -0.1 0.3 -0.1
v 2.98023e-008 0.1 -0.1
v 2.98023e-008 0.1 -0.2
v 2.98023e-008 0.2 -0.1
v 2.98023e-008 0.2 -0.2
v 0.1 0 -0.1
v 0.1 0 -0.2
v 0.1 0.1 -5.21541e-008
v 0.1 0.1 -0.1
v 0.1 0.1 -0.2
v 0.1 0.1 -0.3
v 0.1 0.2 -5.21541e-008
v 0.1 0.2 -0.1
v 0.1 0.2 -0.2
v 0.1 0.2 -0.3
v -0.1 0 -0.2
v -0.1 0 -0.3
v -0.1 0.3 -0.1
v -0.1 0.3 -0.2
v -0.1 0.3 -0.3
v -0.1 0.3 -0.4
v -0.1 0.4 -0.1
v -0.1 0.4 -0.2
v -0.1 0.4 -0.3
v -0.1 0.4 -0.4
v 2.98023e-008 0 0.0999999
v 2.98023e-008 0 -5.21541e-008
v 2.98023e-008 0.2 0.2
v 2.98023e-008 0.2 0.0999999
v 2.98023e-008 0.2 -5.21541e-008
v 2.98023e-008 0.2 -0.1
v 2.98023e-008 0.3 0.2
v 2.98023e-008 0.3 0.0999999
v 2.98023e-008 0.3 -5.21541e-008
v 2.98023e-008 0.3 -0.1
v 2.98023e-008 0.3 -0.2
v 2.98023e-008 0.3 -0.3
v 2.98023e-008 0.4 -0.2
v 2.98023e-008 0.4 -0.3
v 0.1 0.2 0.0999999
v 0.1 0.2 -5.21541e-008
v 0.1 0.3 0.0999999
v 0.1 0.3 -5.21541e-008
v 0.2 0 -0.1
v 0.2 0 -0.2
v 0.2 0.1 -5.21541e-008
v 0.2 0.1 -0.1
v 0.2 0.1 -0.2
v 0.2 0.1 -0.3
v 0.2 0.2 -5.21541e-008
v 0.2 0.2 -0.1
v 0.2 0.2 -0.2
v 0.2 0.2 -0.3
v 0.3 0.1 -0.1
v 0.3 0.1 -0.2
v 0.3 0.2 -0.1
v 0.3 0.2 -0.2
v -0.1 0.2 0.2
v -0.1 0.3 0.2
v 2.98023e-008 0.2 0.2
v 2.98023e-008 0.3 0.2
v -0.2 0.2 0.0999999
v -0.2 0.3 0.0999999
v -0.1 0 0.0999999
v -0.1 0.2 0.0999999
v -0.1 0.3 0.0999999
v 2.98023e-008 0 0.0999999
v 2.98023e-008 0.2 0.0999999
v 2.98023e-008 0.3 0.0999999
v 0.1 0.2 0.0999999
v 0.1 0.3 0.0999999
v 0.1 0.1 -5.21541e-008
v 0.1 0.2 -5.21541e-008
v 0.2 0.1 -5.21541e-008
v 0.2 0.2 -5.21541e-008
v -0.2 0.3 -0.1
v -0.2 0.4 -0.1
v -0.1 0.3 -0.1
v -0.1 0.4 -0.1
v 2.98023e-008 0.1 -0.1
v 2.98023e-008 0.2 -0.1
v 0.1 0 -0.1
v 0.1 0.1 -0.1
v 0.1 0.2 -0.1
v 0.2 0 -0.1
v 0.2 0.1 -0.1
v 0.2 0.2 -0.1
v 0.3 0.1 -0.1
v 0.3 0.2 -0.1
v -0.3 0.3 -0.2
v -0.3 0.4 -0.2
v -0.2 0 -0.2
v -0.2 0.3 -0.2
v -0.2 0.4 -0.2
v -0.1 0 -0.2
v -0.1 0.3 -0.2
v -0.1 0.4 -0.2
v 2.98023e-008 0.3 -0.2
v 2.98023e-008 0.4 -0.2
v -0.2 0.2 -5.21541e-008
v -0.2 0.3 -5.21541e-008
v -0.1 0 -5.21541e-008
v -0.1 0.2 -5.21541e-008
v -0.1 0.3 -5.21541e-008
v 2.98023e-008 0 -5.21541e-008
v 2.98023e-008 0.2 -5.21541e-008
v 2.98023e-008 0.3 -5.21541e-008
v 0.1 0.2 -5.21541e-008
v 0.1 0.3 -5.21541e-008
v -0.1 0.2 -0.1
v -0.1 0.3 -0.1
v 2.98023e-008 0.2 -0.1
v 2.98023e-008 0.3 -0.1
v 2.98023e-008 0.1 -0.2
v 2.98023e-008 0.2 -0.2
v 0.1 0 -0.2
v 0.1 0.1 -0.2
v 0.1 0.2 -0.2
v 0.2 0 -0.2
v 0.2 0.1 -0.2
v 0.2 0.2 -0.2
v 0.3 0.1 -0.2
v 0.3 0.2 -0.2
v -0.3 0.3 -0.3
v -0.3 0.4 -0.3
v -0.2 0 -0.3
v -0.2 0.3 -0.3
v -0.2 0.4 -0.3
v -0.1 0 -0.3
v -0.1 0.3 -0.3
v -0.1 0.4 -0.3
v 2.98023e-008 0.3 -0.3
v 2.98023e-008 0.4 -0.3
v 0.1 0.1 -0.3
v 0.1 0.2 -0.3
v 0.2 0.1 -0.3
v 0.2 0.2 -0.3
v -0.2 0.3 -0.4
v -0.2 0.4 -0.4
v -0.1 0.3 -0.4
v -0.1 0.4 -0.4
v -0.1 0 0.0999999
v 2.98023e-008 0 0.0999999
v -0.1 0 -5.21541e-008
v 2.98023e-008 0 -5.21541e-008
v 0.1 0 -0.1
v 0.2 0 -0.1
v -0.2 0 -0.2
v -0.1 0 -0.2
v 0.1 0 -0.2
v 0.2 0 -0.2
v -0.2 0 -0.3
v -0.1 0 -0.3
v 0.1 0.1 -5.21541e-008
v 0.2 0.1 -5.21541e-008
v 2.98023e-008 0.1 -0.1
v 0.1 0.1 -0.1
v 0.2 0.1 -0.1
v 0.3 0.1 -0.1
v 2.98023e-008 0.1 -0.2
v 0.1 0.1 -0.2
v 0.2 0.1 -0.2
v 0.3 0.1 -0.2
v 0.1 0.1 -0.3
v 0.2 0.1 -0.3
v -0.1 0.2 0.2
v 2.98023e-008 0.2 0.2
v -0.2 0.2 0.0999999
v -0.1 0.2 0.0999999
v 2.98023e-008 0.2 0.0999999
v 0.1 0.2 0.0999999
v -0.2 0.2 -5.21541e-008
v -0.1 0.2 -5.21541e-008
v 2.98023e-008 0.2 -5.21541e-008
v 0.1 0.2 -5.21541e-008
v -0.1 0.2 -0.1
v 2.98023e-008 0.2 -0.1
v -0.2 0.3 -0.1
v -0.1 0.3 -0.1
v -0.3 0.3 -0.2
v -0.2 0.3 -0.2
v -0.1 0.3 -0.2
v 2.98023e-008 0.3 -0.2
v -0.3 0.3 -0.3
v -0.2 0.3 -0.3
v -0.1 0.3 -0.3
v 2.98023e-008 0.3 -0.3
v -0.2 0.3 -0.4
v -0.1 0.3 -0.4
v 0.1 0.2 -5.21541e-008
v 0.2 0.2 -5.21541e-008
v 2.98023e-008 0.2 -0.1
v 0.1 0.2 -0.1
v 0.2 0.2 -0.1
v 0.3 0.2 -0.1
v 2.98023e-008 0.2 -0.2
v 0.1 0.2 -0.2
v 0.2 0.2 -0.2
v 0.3 0.2 -0.2
v 0.1 0.2 -0.3
v 0.2 0.2 -0.3
v -0.1 0.3 0.2
v 2.98023e-008 0.3 0.2
v -0.2 0.3 0.0999999
v -0.1 0.3 0.0999999
v 2.98023e-008 0.3 0.0999999
v 0.1 0.3 0.0999999
v -0.2 0.3 -5.21541e-008
v -0.1 0.3 -5.21541e-008
v 2.98023e-008 0.3 -5.21541e-008
v 0.1 0.3 -5.21541e-008
v -0.1 0.3 -0.1
v 2.98023e-008 0.3 -0.1
v -0.2 0.4 -0.1
v -0.1 0.4 -0.1
v -0.3 0.4 -0.2
v -0.2 0.4 -0.2
v -0.1 0.4 -0.2
v 2.98023e-008 0.4 -0.2
v -0.3 0.4 -0.3
v -0.2 0.4 -0.3
v -0.1 0.4 -0.3
v 2.98023e-008 0.4 -0.3
v -0.2 0.4 -0.4
v -0.1 0.4 -0.4

# faces
f 3/2/1 2/2/1 1/2/1
f 4/2/1 2/2/1 3/2/1
f 9/2/1 8/2/1 7/2/1
f 10/2/1 8/2/1 9/2/1
f 12/3/1 6/3/1 5/3/1
f 13/3/1 6/3/1 12/3/1
f 15/2/1 12/2/1 11/2/1
f 16/2/1 12/2/1 15/2/1
f 17/2/1 14/2/1 13/2/1
f 18/2/1 14/2/1 17/2/1
f 22/3/1 20/3/1 19/3/1
f 23/3/1 20/3/1 22/3/1
f 25/2/1 22/2/1 21/2/1
f 26/2/1 22/2/1 25/2/1
f 27/2/1 24/2/1 23/2/1
f 28/2/1 24/2/1 27/2/1
f 31/2/1 30/2/1 29/2/1
f 32/2/1 30/2/1 31/2/1
f 36/3/1 34/3/1 33/3/1
f 37/3/1 34/3/1 36/3/1
f 39/2/1 36/2/1 35/2/1
f 40/2/1 36/2/1 39/2/1
f 41/2/1 38/2/1 37/2/1
f 42/2/1 38/2/1 41/2/1
f 43/3/2 44/3/2 46/3/2
f 46/3/2 44/3/2 47/3/2
f 45/2/2 46/2/2 49/2/2
f 49/2/2 46/2/2 50/2/2
f 47/2/2 48/2/2 51/2/2
f 51/2/2 48/2/2 52/2/2
f 53/3/2 54/3/2 56/3/2
f 56/3/2 54/3/2 57/3/2
f 55/2/2 56/2/2 59/2/2
f 59/2/2 56/2/2 60/2/2
f 57/2/2 58/2/2 61/2/2
f 61/2/2 58/2/2 62/2/2
f 63/2/2 64/2/2 65/2/2
f 65/2/2 64/2/2 66/2/2
f 67/2/2 68/2/2 69/2/2
f 69/2/2 68/2/2 70/2/2
f 71/3/2 72/3/2 74/3/2
f 74/3/2 72/3/2 75/3/2
f 73/2/2 74/2/2 77/2/2
f 77/2/2 74/2/2 78/2/2
f 75/2/2 76/2/2 79/2/2
f 79/2/2 76/2/2 80/2/2
f 81/2/2 82/2/2 83/2/2
f 83/2/2 82/2/2 84/2/2
f 87/2/3 86/2/3 85/2/3
f 88/2/3 86/2/3 87/2/3
f 92/2/3 90/2/3 89/2/3
f 93/2/3 90/2/3 92/2/3
f 94/3/3 92/3/3 91/3/3
f 95/3/3 92/3/3 94/3/3
f 97/2/3 96/2/3 95/2/3
f 98/2/3 96/2/3 97/2/3
f 101/2/3 100/2/3 99/2/3
f 102/2/3 100/2/3 101/2/3
f 105/2/3 104/2/3 103/2/3
f 106/2/3 104/2/3 105/2/3
f 110/2/3 108/2/3 107/2/3
f 111/2/3 108/2/3 110/2/3
f 112/3/3 110/3/3 109/3/3
f 113/3/3 110/3/3 112/3/3
f 115/2/3 114/2/3 113/2/3
f 116/2/3 114/2/3 115/2/3
f 120/2/3 118/2/3 117/2/3
f 121/2/3 118/2/3 120/2/3
f 122/3/3 120/3/3 119/3/3
f 123/3/3 120/3/3 122/3/3
f 125/2/3 124/2/3 123/2/3
f 126/2/3 124/2/3 125/2/3
f 127/2/4 128/2/4 130/2/4
f 130/2/4 128/2/4 131/2/4
f 129/3/4 130/3/4 132/3/4
f 132/3/4 130/3/4 133/3/4
f 133/2/4 134/2/4 135/2/4
f 135/2/4 134/2/4 136/2/4
f 137/2/4 138/2/4 139/2/4
f 139/2/4 138/2/4 140/2/4
f 141/2/4 142/2/4 144/2/4
f 144/2/4 142/2/4 145/2/4
f 143/3/4 144/3/4 146/3/4
f 146/3/4 144/3/4 147/3/4
f 147/2/4 148/2/4 149/2/4
f 149/2/4 148/2/4 150/2/4
f 151/2/4 152/2/4 154/2/4
f 154/2/4 152/2/4 155/2/4
f 153/3/4 154/3/4 156/3/4
f 156/3/4 154/3/4 157/3/4
f 157/2/4 158/2/4 159/2/4
f 159/2/4 158/2/4 160/2/4
f 161/2/4 162/2/4 163/2/4
f 163/2/4 162/2/4 164/2/4
f 165/2/4 166/2/4 167/2/4
f 167/2/4 166/2/4 168/2/4
f 171/3/5 170/3/5 169/3/5
f 172/3/5 170/3/5 171/3/5
f 177/3/5 174/3/5 173/3/5
f 178/3/5 174/3/5 177/3/5
f 179/3/5 176/3/5 175/3/5
f 180/3/5 176/3/5 179/3/5
f 184/2/5 182/2/5 181/2/5
f 185/2/5 182/2/5 184/2/5
f 187/2/5 184/2/5 183/2/5
f 188/2/5 184/2/5 187/2/5
f 189/2/5 186/2/5 185/2/5
f 190/2/5 186/2/5 189/2/5
f 191/2/5 189/2/5 188/2/5
f 192/2/5 189/2/5 191/2/5
f 196/2/5 194/2/5 193/2/5
f 197/2/5 194/2/5 196/2/5
f 199/2/5 196/2/5 195/2/5
f 200/2/5 196/2/5 199/2/5
f 201/2/5 198/2/5 197/2/5
f 202/2/5 198/2/5 201/2/5
f 203/2/5 201/2/5 200/2/5
f 204/2/5 201/2/5 203/2/5
f 208/2/5 206/2/5 205/2/5
f 209/2/5 206/2/5 208/2/5
f 211/2/5 208/2/5 207/2/5
f 212/2/5 208/2/5 211/2/5
f 213/2/5 210/2/5 209/2/5
f 214/2/5 210/2/5 213/2/5
f 215/2/5 213/2/5 212/2/5
f 216/2/5 213/2/5 215/2/5
f 217/2/6 218/2/6 220/2/6
f 220/2/6 218/2/6 221/2/6
f 219/2/6 220/2/6 223/2/6
f 220/1/6 221/1/6 224/1/6
f 223/2/6 220/2/6 224/2/6
f 221/2/6 222/2/6 225/2/6
f 224/1/6 221/1/6 225/1/6
f 225/2/6 222/2/6 226/2/6
f 224/2/6 225/2/6 227/2/6
f 227/2/6 225/2/6 228/2/6
f 229/2/6 230/2/6 232/2/6
f 232/2/6 230/2/6 233/2/6
f 231/2/6 232/2/6 235/2/6
f 232/1/6 233/1/6 236/1/6
f 235/2/6 232/2/6 236/2/6
f 233/2/6 234/2/6 237/2/6
f 236/1/6 233/1/6 237/1/6
f 237/2/6 234/2/6 238/2/6
f 236/2/6 237/2/6 239/2/6
f 239/2/6 237/2/6 240/2/6
f 241/2/6 242/2/6 244/2/6
f 244/2/6 242/2/6 245/2/6
f 243/2/6 244/2/6 247/2/6
f 244/1/6 245/1/6 248/1/6
f 247/2/6 244/2/6 248/2/6
f 245/2/6 246/2/6 249/2/6
f 248/1/6 245/1/6 249/1/6
f 249/2/6 246/2/6 250/2/6
f 248/2/6 249/2/6 251/2/6
f 251/2/6 249/2/6 252/2/6
