# MagicaVoxel @ Ephtracy

# group
o 

# material
mtllib TreeLow.mtl
usemtl palette

# normals
vn -1 0 0
vn 1 0 0
vn 0 0 1
vn 0 0 -1
vn 0 -1 0
vn 0 1 0

# texcoords
vt 0.654297 0.5
vt 0.677734 0.5
vt 0.904297 0.5

# verts
v -0.5 0.5 0.5
v -0.5 0.5 -0.5
v -0.5 0.7 0.5
v -0.5 0.7 -0.5
v -0.5 1 0.5
v -0.5 1 -0.5
v -0.5 1.2 0.5
v -0.5 1.2 -0.5
v -0.5 1.5 0.5
v -0.5 1.5 -0.5
v -0.5 1.7 0.5
v -0.5 1.7 -0.5
v -0.3 0 0.3
v -0.3 0 -0.3
v -0.3 0.5 0.3
v -0.3 0.5 -0.3
v 0.3 0 0.3
v 0.3 0 -0.3
v 0.3 0.5 0.3
v 0.3 0.5 -0.3
v 0.5 0.5 0.5
v 0.5 0.5 -0.5
v 0.5 0.7 0.5
v 0.5 0.7 -0.5
v 0.5 1 0.5
v 0.5 1 -0.5
v 0.5 1.2 0.5
v 0.5 1.2 -0.5
v 0.5 1.5 0.5
v 0.5 1.5 -0.5
v 0.5 1.7 0.5
v 0.5 1.7 -0.5
v -0.5 0.5 0.5
v -0.5 0.7 0.5
v -0.5 1 0.5
v -0.5 1.2 0.5
v -0.5 1.5 0.5
v -0.5 1.7 0.5
v 0.5 0.5 0.5
v 0.5 0.7 0.5
v 0.5 1 0.5
v 0.5 1.2 0.5
v 0.5 1.5 0.5
v 0.5 1.7 0.5
v -0.3 0 0.3
v -0.3 0.5 0.3
v 0.3 0 0.3
v 0.3 0.5 0.3
v -0.3 0 -0.3
v -0.3 0.5 -0.3
v 0.3 0 -0.3
v 0.3 0.5 -0.3
v -0.5 0.5 -0.5
v -0.5 0.7 -0.5
v -0.5 1 -0.5
v -0.5 1.2 -0.5
v -0.5 1.5 -0.5
v -0.5 1.7 -0.5
v 0.5 0.5 -0.5
v 0.5 0.7 -0.5
v 0.5 1 -0.5
v 0.5 1.2 -0.5
v 0.5 1.5 -0.5
v 0.5 1.7 -0.5
v -0.3 0 0.3
v 0.3 0 0.3
v -0.3 0 -0.3
v 0.3 0 -0.3
v -0.5 0.5 0.5
v 0.5 0.5 0.5
v -0.3 0.5 0.3
v 0.3 0.5 0.3
v -0.3 0.5 -0.3
v 0.3 0.5 -0.3
v -0.5 0.5 -0.5
v 0.5 0.5 -0.5
v -0.5 1.7 0.5
v 0.5 1.7 0.5
v -0.5 1.7 -0.5
v 0.5 1.7 -0.5

# faces
f 3/3/1 2/3/1 1/3/1
f 4/3/1 2/3/1 3/3/1
f 5/1/1 4/1/1 3/1/1
f 6/1/1 4/1/1 5/1/1
f 7/3/1 6/3/1 5/3/1
f 8/3/1 6/3/1 7/3/1
f 9/1/1 8/1/1 7/1/1
f 10/1/1 8/1/1 9/1/1
f 11/3/1 10/3/1 9/3/1
f 12/3/1 10/3/1 11/3/1
f 15/2/1 14/2/1 13/2/1
f 16/2/1 14/2/1 15/2/1
f 17/2/2 18/2/2 19/2/2
f 19/2/2 18/2/2 20/2/2
f 21/3/2 22/3/2 23/3/2
f 23/3/2 22/3/2 24/3/2
f 23/1/2 24/1/2 25/1/2
f 25/1/2 24/1/2 26/1/2
f 25/3/2 26/3/2 27/3/2
f 27/3/2 26/3/2 28/3/2
f 27/1/2 28/1/2 29/1/2
f 29/1/2 28/1/2 30/1/2
f 29/3/2 30/3/2 31/3/2
f 31/3/2 30/3/2 32/3/2
f 39/3/3 34/3/3 33/3/3
f 40/1/3 35/1/3 34/1/3
f 40/3/3 34/3/3 39/3/3
f 41/3/3 36/3/3 35/3/3
f 41/1/3 35/1/3 40/1/3
f 42/1/3 37/1/3 36/1/3
f 42/3/3 36/3/3 41/3/3
f 43/3/3 38/3/3 37/3/3
f 43/1/3 37/1/3 42/1/3
f 44/3/3 38/3/3 43/3/3
f 47/2/3 46/2/3 45/2/3
f 48/2/3 46/2/3 47/2/3
f 49/2/4 50/2/4 51/2/4
f 51/2/4 50/2/4 52/2/4
f 53/3/4 54/3/4 59/3/4
f 54/1/4 55/1/4 60/1/4
f 59/3/4 54/3/4 60/3/4
f 55/3/4 56/3/4 61/3/4
f 60/1/4 55/1/4 61/1/4
f 56/1/4 57/1/4 62/1/4
f 61/3/4 56/3/4 62/3/4
f 57/3/4 58/3/4 63/3/4
f 62/1/4 57/1/4 63/1/4
f 63/3/4 58/3/4 64/3/4
f 67/2/5 66/2/5 65/2/5
f 68/2/5 66/2/5 67/2/5
f 71/3/5 70/3/5 69/3/5
f 72/3/5 70/3/5 71/3/5
f 73/3/5 71/3/5 69/3/5
f 74/3/5 70/3/5 72/3/5
f 75/3/5 73/3/5 69/3/5
f 75/3/5 74/3/5 73/3/5
f 76/3/5 70/3/5 74/3/5
f 76/3/5 74/3/5 75/3/5
f 77/3/6 78/3/6 79/3/6
f 79/3/6 78/3/6 80/3/6
