# MagicaVoxel @ Ephtracy

# group
o 

# material
mtllib TreeHigh.mtl
usemtl palette

# normals
vn -1 0 0
vn 1 0 0
vn 0 0 1
vn 0 0 -1
vn 0 -1 0
vn 0 1 0

# texcoords
vt 0.654297 0.5
vt 0.677734 0.5
vt 0.904297 0.5

# verts
v -0.5 0.5 0.5
v -0.5 0.5 -0.5
v -0.5 0.7 0.5
v -0.5 0.7 -0.5
v -0.5 1 0.5
v -0.5 1 -0.5
v -0.5 1.2 0.5
v -0.5 1.2 -0.5
v -0.5 1.5 0.5
v -0.5 1.5 -0.5
v -0.5 1.7 0.5
v -0.5 1.7 -0.5
v -0.5 2 0.5
v -0.5 2 -0.5
v -0.5 2.2 0.5
v -0.5 2.2 -0.5
v -0.5 2.5 0.5
v -0.5 2.5 -0.5
v -0.5 2.7 0.5
v -0.5 2.7 -0.5
v -0.3 0 0.3
v -0.3 0 -0.3
v -0.3 0.5 0.3
v -0.3 0.5 -0.3
v 0.3 0 0.3
v 0.3 0 -0.3
v 0.3 0.5 0.3
v 0.3 0.5 -0.3
v 0.5 0.5 0.5
v 0.5 0.5 -0.5
v 0.5 0.7 0.5
v 0.5 0.7 -0.5
v 0.5 1 0.5
v 0.5 1 -0.5
v 0.5 1.2 0.5
v 0.5 1.2 -0.5
v 0.5 1.5 0.5
v 0.5 1.5 -0.5
v 0.5 1.7 0.5
v 0.5 1.7 -0.5
v 0.5 2 0.5
v 0.5 2 -0.5
v 0.5 2.2 0.5
v 0.5 2.2 -0.5
v 0.5 2.5 0.5
v 0.5 2.5 -0.5
v 0.5 2.7 0.5
v 0.5 2.7 -0.5
v -0.5 0.5 0.5
v -0.5 0.7 0.5
v -0.5 1 0.5
v -0.5 1.2 0.5
v -0.5 1.5 0.5
v -0.5 1.7 0.5
v -0.5 2 0.5
v -0.5 2.2 0.5
v -0.5 2.5 0.5
v -0.5 2.7 0.5
v 0.5 0.5 0.5
v 0.5 0.7 0.5
v 0.5 1 0.5
v 0.5 1.2 0.5
v 0.5 1.5 0.5
v 0.5 1.7 0.5
v 0.5 2 0.5
v 0.5 2.2 0.5
v 0.5 2.5 0.5
v 0.5 2.7 0.5
v -0.3 0 0.3
v -0.3 0.5 0.3
v 0.3 0 0.3
v 0.3 0.5 0.3
v -0.3 0 -0.3
v -0.3 0.5 -0.3
v 0.3 0 -0.3
v 0.3 0.5 -0.3
v -0.5 0.5 -0.5
v -0.5 0.7 -0.5
v -0.5 1 -0.5
v -0.5 1.2 -0.5
v -0.5 1.5 -0.5
v -0.5 1.7 -0.5
v -0.5 2 -0.5
v -0.5 2.2 -0.5
v -0.5 2.5 -0.5
v -0.5 2.7 -0.5
v 0.5 0.5 -0.5
v 0.5 0.7 -0.5
v 0.5 1 -0.5
v 0.5 1.2 -0.5
v 0.5 1.5 -0.5
v 0.5 1.7 -0.5
v 0.5 2 -0.5
v 0.5 2.2 -0.5
v 0.5 2.5 -0.5
v 0.5 2.7 -0.5
v -0.3 0 0.3
v 0.3 0 0.3
v -0.3 0 -0.3
v 0.3 0 -0.3
v -0.5 0.5 0.5
v 0.5 0.5 0.5
v -0.3 0.5 0.3
v 0.3 0.5 0.3
v -0.3 0.5 -0.3
v 0.3 0.5 -0.3
v -0.5 0.5 -0.5
v 0.5 0.5 -0.5
v -0.5 2.7 0.5
v 0.5 2.7 0.5
v -0.5 2.7 -0.5
v 0.5 2.7 -0.5

# faces
f 3/3/1 2/3/1 1/3/1
f 4/3/1 2/3/1 3/3/1
f 5/1/1 4/1/1 3/1/1
f 6/1/1 4/1/1 5/1/1
f 7/3/1 6/3/1 5/3/1
f 8/3/1 6/3/1 7/3/1
f 9/1/1 8/1/1 7/1/1
f 10/1/1 8/1/1 9/1/1
f 11/3/1 10/3/1 9/3/1
f 12/3/1 10/3/1 11/3/1
f 13/1/1 12/1/1 11/1/1
f 14/1/1 12/1/1 13/1/1
f 15/3/1 14/3/1 13/3/1
f 16/3/1 14/3/1 15/3/1
f 17/1/1 16/1/1 15/1/1
f 18/1/1 16/1/1 17/1/1
f 19/3/1 18/3/1 17/3/1
f 20/3/1 18/3/1 19/3/1
f 23/2/1 22/2/1 21/2/1
f 24/2/1 22/2/1 23/2/1
f 25/2/2 26/2/2 27/2/2
f 27/2/2 26/2/2 28/2/2
f 29/3/2 30/3/2 31/3/2
f 31/3/2 30/3/2 32/3/2
f 31/1/2 32/1/2 33/1/2
f 33/1/2 32/1/2 34/1/2
f 33/3/2 34/3/2 35/3/2
f 35/3/2 34/3/2 36/3/2
f 35/1/2 36/1/2 37/1/2
f 37/1/2 36/1/2 38/1/2
f 37/3/2 38/3/2 39/3/2
f 39/3/2 38/3/2 40/3/2
f 39/1/2 40/1/2 41/1/2
f 41/1/2 40/1/2 42/1/2
f 41/3/2 42/3/2 43/3/2
f 43/3/2 42/3/2 44/3/2
f 43/1/2 44/1/2 45/1/2
f 45/1/2 44/1/2 46/1/2
f 45/3/2 46/3/2 47/3/2
f 47/3/2 46/3/2 48/3/2
f 59/3/3 50/3/3 49/3/3
f 60/1/3 51/1/3 50/1/3
f 60/3/3 50/3/3 59/3/3
f 61/3/3 52/3/3 51/3/3
f 61/1/3 51/1/3 60/1/3
f 62/1/3 53/1/3 52/1/3
f 62/3/3 52/3/3 61/3/3
f 63/3/3 54/3/3 53/3/3
f 63/1/3 53/1/3 62/1/3
f 64/1/3 55/1/3 54/1/3
f 64/3/3 54/3/3 63/3/3
f 65/3/3 56/3/3 55/3/3
f 65/1/3 55/1/3 64/1/3
f 66/1/3 57/1/3 56/1/3
f 66/3/3 56/3/3 65/3/3
f 67/3/3 58/3/3 57/3/3
f 67/1/3 57/1/3 66/1/3
f 68/3/3 58/3/3 67/3/3
f 71/2/3 70/2/3 69/2/3
f 72/2/3 70/2/3 71/2/3
f 73/2/4 74/2/4 75/2/4
f 75/2/4 74/2/4 76/2/4
f 77/3/4 78/3/4 87/3/4
f 78/1/4 79/1/4 88/1/4
f 87/3/4 78/3/4 88/3/4
f 79/3/4 80/3/4 89/3/4
f 88/1/4 79/1/4 89/1/4
f 80/1/4 81/1/4 90/1/4
f 89/3/4 80/3/4 90/3/4
f 81/3/4 82/3/4 91/3/4
f 90/1/4 81/1/4 91/1/4
f 82/1/4 83/1/4 92/1/4
f 91/3/4 82/3/4 92/3/4
f 83/3/4 84/3/4 93/3/4
f 92/1/4 83/1/4 93/1/4
f 84/1/4 85/1/4 94/1/4
f 93/3/4 84/3/4 94/3/4
f 85/3/4 86/3/4 95/3/4
f 94/1/4 85/1/4 95/1/4
f 95/3/4 86/3/4 96/3/4
f 99/2/5 98/2/5 97/2/5
f 100/2/5 98/2/5 99/2/5
f 103/3/5 102/3/5 101/3/5
f 104/3/5 102/3/5 103/3/5
f 105/3/5 103/3/5 101/3/5
f 106/3/5 102/3/5 104/3/5
f 107/3/5 105/3/5 101/3/5
f 107/3/5 106/3/5 105/3/5
f 108/3/5 102/3/5 106/3/5
f 108/3/5 106/3/5 107/3/5
f 109/3/6 110/3/6 111/3/6
f 111/3/6 110/3/6 112/3/6
