# MagicaVoxel @ Ephtracy

# group
o 

# material
mtllib CarPurple.mtl
usemtl palette

# normals
vn -1 0 0
vn 1 0 0
vn 0 0 1
vn 0 0 -1
vn 0 -1 0
vn 0 1 0

# texcoords
vt 0.849609 0.5
vt 0.853516 0.5
vt 0.912109 0.5
vt 0.958984 0.5
vt 0.974609 0.5
vt 0.990234 0.5

# verts
v -0.8 0.1 0.4
v -0.8 0.1 0.2
v -0.8 0.1 -0.2
v -0.8 0.1 -0.4
v -0.8 0.2 0.4
v -0.8 0.2 0.2
v -0.8 0.2 -0.2
v -0.8 0.2 -0.4
v -0.8 0.3 0.4
v -0.8 0.3 0.3
v -0.8 0.3 0.2
v -0.8 0.3 -0.2
v -0.8 0.3 -0.3
v -0.8 0.3 -0.4
v -0.8 0.4 0.3
v -0.8 0.4 0.2
v -0.8 0.4 -0.2
v -0.8 0.4 -0.3
v -0.8 0.5 0.4
v -0.8 0.5 0.2
v -0.8 0.5 -0.2
v -0.8 0.5 -0.4
v -0.6 0 0.4
v -0.6 0 0.3
v -0.6 0 -0.3
v -0.6 0 -0.4
v -0.6 0.1 0.4
v -0.6 0.1 0.3
v -0.6 0.1 0.2
v -0.6 0.1 -0.2
v -0.6 0.1 -0.3
v -0.6 0.1 -0.4
v -0.6 0.2 0.2
v -0.6 0.2 -0.2
v -0.3 0.5 0.3
v -0.3 0.5 0.2
v -0.3 0.5 -0.2
v -0.3 0.5 -0.3
v -0.3 0.7 0.2
v -0.3 0.7 -0.2
v -0.3 0.8 0.3
v -0.3 0.8 -0.3
v -0.2 0.4 0.5
v -0.2 0.4 0.4
v -0.2 0.4 -0.4
v -0.2 0.4 -0.5
v -0.2 0.5 0.5
v -0.2 0.5 0.4
v -0.2 0.5 -0.4
v -0.2 0.5 -0.5
v 0.5 0 0.4
v 0.5 0 0.3
v 0.5 0 -0.3
v 0.5 0 -0.4
v 0.5 0.1 0.4
v 0.5 0.1 0.3
v 0.5 0.1 -0.3
v 0.5 0.1 -0.4
v -0.3 0 0.4
v -0.3 0 0.3
v -0.3 0 -0.3
v -0.3 0 -0.4
v -0.3 0.1 0.4
v -0.3 0.1 0.3
v -0.3 0.1 -0.3
v -0.3 0.1 -0.4
v -2.23517e-008 0.4 0.5
v -2.23517e-008 0.4 0.4
v -2.23517e-008 0.4 -0.4
v -2.23517e-008 0.4 -0.5
v -2.23517e-008 0.5 0.5
v -2.23517e-008 0.5 0.4
v -2.23517e-008 0.5 -0.4
v -2.23517e-008 0.5 -0.5
v 0.6 0.5 0.3
v 0.6 0.5 0.2
v 0.6 0.5 -0.2
v 0.6 0.5 -0.3
v 0.6 0.7 0.2
v 0.6 0.7 -0.2
v 0.6 0.8 0.3
v 0.6 0.8 -0.3
v 0.8 0 0.4
v 0.8 0 0.3
v 0.8 0 -0.3
v 0.8 0 -0.4
v 0.8 0.1 0.4
v 0.8 0.1 0.3
v 0.8 0.1 -0.3
v 0.8 0.1 -0.4
v 0.9 0.1 0.4
v 0.9 0.1 -0.4
v 0.9 0.2 0.4
v 0.9 0.2 -0.4
v 0.9 0.3 0.4
v 0.9 0.3 -0.4
v 0.9 0.5 0.4
v 0.9 0.5 -0.4
v -0.2 0.4 0.5
v -0.2 0.5 0.5
v -2.23517e-008 0.4 0.5
v -2.23517e-008 0.5 0.5
v -0.8 0.1 0.4
v -0.8 0.2 0.4
v -0.8 0.3 0.4
v -0.8 0.5 0.4
v -0.6 0 0.4
v -0.6 0.1 0.4
v -0.6 0.2 0.4
v -0.6 0.3 0.4
v -0.5 0.1 0.4
v -0.5 0.2 0.4
v -0.4 0.1 0.4
v -0.4 0.2 0.4
v -0.3 0 0.4
v -0.3 0.1 0.4
v -0.3 0.2 0.4
v -0.3 0.3 0.4
v -0.2 0.4 0.4
v -0.2 0.5 0.4
v -2.23517e-008 0.4 0.4
v -2.23517e-008 0.5 0.4
v 0.5 0 0.4
v 0.5 0.1 0.4
v 0.5 0.2 0.4
v 0.5 0.3 0.4
v 0.6 0.1 0.4
v 0.6 0.2 0.4
v 0.7 0.1 0.4
v 0.7 0.2 0.4
v 0.8 0 0.4
v 0.8 0.1 0.4
v 0.8 0.2 0.4
v 0.8 0.3 0.4
v 0.9 0.1 0.4
v 0.9 0.2 0.4
v 0.9 0.3 0.4
v 0.9 0.5 0.4
v -0.3 0.5 0.3
v -0.3 0.8 0.3
v -0.2 0.5 0.3
v -0.2 0.7 0.3
v 0.3 0.5 0.3
v 0.3 0.7 0.3
v 0.4 0.5 0.3
v 0.4 0.7 0.3
v 0.5 0.5 0.3
v 0.5 0.7 0.3
v 0.6 0.5 0.3
v 0.6 0.8 0.3
v -0.8 0.1 -0.2
v -0.8 0.2 -0.2
v -0.6 0.1 -0.2
v -0.6 0.2 -0.2
v -0.6 0 -0.3
v -0.6 0.1 -0.3
v -0.3 0 -0.3
v -0.3 0.1 -0.3
v 0.5 0 -0.3
v 0.5 0.1 -0.3
v 0.8 0 -0.3
v 0.8 0.1 -0.3
v -0.6 0 0.3
v -0.6 0.1 0.3
v -0.3 0 0.3
v -0.3 0.1 0.3
v 0.5 0 0.3
v 0.5 0.1 0.3
v 0.8 0 0.3
v 0.8 0.1 0.3
v -0.8 0.1 0.2
v -0.8 0.2 0.2
v -0.6 0.1 0.2
v -0.6 0.2 0.2
v -0.3 0.5 -0.3
v -0.3 0.8 -0.3
v -0.2 0.5 -0.3
v -0.2 0.7 -0.3
v 0.3 0.5 -0.3
v 0.3 0.7 -0.3
v 0.4 0.5 -0.3
v 0.4 0.7 -0.3
v 0.5 0.5 -0.3
v 0.5 0.7 -0.3
v 0.6 0.5 -0.3
v 0.6 0.8 -0.3
v -0.8 0.1 -0.4
v -0.8 0.2 -0.4
v -0.8 0.3 -0.4
v -0.8 0.5 -0.4
v -0.6 0 -0.4
v -0.6 0.1 -0.4
v -0.6 0.2 -0.4
v -0.6 0.3 -0.4
v -0.5 0.1 -0.4
v -0.5 0.2 -0.4
v -0.4 0.1 -0.4
v -0.4 0.2 -0.4
v -0.3 0 -0.4
v -0.3 0.1 -0.4
v -0.3 0.2 -0.4
v -0.3 0.3 -0.4
v -0.2 0.4 -0.4
v -0.2 0.5 -0.4
v -2.23517e-008 0.4 -0.4
v -2.23517e-008 0.5 -0.4
v 0.5 0 -0.4
v 0.5 0.1 -0.4
v 0.5 0.2 -0.4
v 0.5 0.3 -0.4
v 0.6 0.1 -0.4
v 0.6 0.2 -0.4
v 0.7 0.1 -0.4
v 0.7 0.2 -0.4
v 0.8 0 -0.4
v 0.8 0.1 -0.4
v 0.8 0.2 -0.4
v 0.8 0.3 -0.4
v 0.9 0.1 -0.4
v 0.9 0.2 -0.4
v 0.9 0.3 -0.4
v 0.9 0.5 -0.4
v -0.2 0.4 -0.5
v -0.2 0.5 -0.5
v -2.23517e-008 0.4 -0.5
v -2.23517e-008 0.5 -0.5
v -0.6 0 0.4
v -0.3 0 0.4
v 0.5 0 0.4
v 0.8 0 0.4
v -0.6 0 0.3
v -0.3 0 0.3
v 0.5 0 0.3
v 0.8 0 0.3
v -0.6 0 -0.3
v -0.3 0 -0.3
v 0.5 0 -0.3
v 0.8 0 -0.3
v -0.6 0 -0.4
v -0.3 0 -0.4
v 0.5 0 -0.4
v 0.8 0 -0.4
v -0.8 0.1 0.4
v -0.6 0.1 0.4
v -0.3 0.1 0.4
v 0.5 0.1 0.4
v 0.8 0.1 0.4
v 0.9 0.1 0.4
v -0.6 0.1 0.3
v -0.3 0.1 0.3
v 0.5 0.1 0.3
v 0.8 0.1 0.3
v -0.8 0.1 0.2
v -0.6 0.1 0.2
v -0.8 0.1 -0.2
v -0.6 0.1 -0.2
v -0.6 0.1 -0.3
v -0.3 0.1 -0.3
v 0.5 0.1 -0.3
v 0.8 0.1 -0.3
v -0.8 0.1 -0.4
v -0.6 0.1 -0.4
v -0.3 0.1 -0.4
v 0.5 0.1 -0.4
v 0.8 0.1 -0.4
v 0.9 0.1 -0.4
v -0.8 0.2 0.2
v -0.6 0.2 0.2
v -0.8 0.2 -0.2
v -0.6 0.2 -0.2
v -0.2 0.4 0.5
v -2.23517e-008 0.4 0.5
v -0.2 0.4 0.4
v -2.23517e-008 0.4 0.4
v -0.2 0.4 -0.4
v -2.23517e-008 0.4 -0.4
v -0.2 0.4 -0.5
v -2.23517e-008 0.4 -0.5
v -0.2 0.5 0.5
v -2.23517e-008 0.5 0.5
v -0.8 0.5 0.4
v -0.2 0.5 0.4
v -2.23517e-008 0.5 0.4
v 0.9 0.5 0.4
v -0.3 0.5 0.3
v -0.2 0.5 0.3
v 0.3 0.5 0.3
v 0.4 0.5 0.3
v 0.5 0.5 0.3
v 0.6 0.5 0.3
v -0.8 0.5 0.2
v -0.3 0.5 0.2
v 0.6 0.5 0.2
v -0.8 0.5 -0.2
v -0.3 0.5 -0.2
v 0.6 0.5 -0.2
v -0.3 0.5 -0.3
v -0.2 0.5 -0.3
v 0.3 0.5 -0.3
v 0.4 0.5 -0.3
v 0.5 0.5 -0.3
v 0.6 0.5 -0.3
v -0.8 0.5 -0.4
v -0.2 0.5 -0.4
v -2.23517e-008 0.5 -0.4
v 0.9 0.5 -0.4
v -0.2 0.5 -0.5
v -2.23517e-008 0.5 -0.5
v -0.3 0.8 0.3
v 0.6 0.8 0.3
v -0.3 0.8 -0.3
v 0.6 0.8 -0.3

# faces
f 5/5/1 2/5/1 1/5/1
f 6/5/1 2/5/1 5/5/1
f 7/5/1 4/5/1 3/5/1
f 8/5/1 4/5/1 7/5/1
f 9/2/1 6/2/1 5/2/1
f 9/2/1 7/2/1 6/2/1
f 9/2/1 8/2/1 7/2/1
f 10/2/1 8/2/1 9/2/1
f 11/2/1 8/2/1 10/2/1
f 12/2/1 8/2/1 11/2/1
f 13/2/1 8/2/1 12/2/1
f 14/2/1 8/2/1 13/2/1
f 15/1/1 10/1/1 9/1/1
f 15/3/1 11/3/1 10/3/1
f 16/2/1 12/2/1 11/2/1
f 16/3/1 11/3/1 15/3/1
f 17/3/1 13/3/1 12/3/1
f 17/2/1 12/2/1 16/2/1
f 18/1/1 14/1/1 13/1/1
f 18/3/1 13/3/1 17/3/1
f 19/1/1 15/1/1 9/1/1
f 19/1/1 16/1/1 15/1/1
f 20/2/1 17/2/1 16/2/1
f 20/1/1 16/1/1 19/1/1
f 21/1/1 18/1/1 17/1/1
f 21/2/1 17/2/1 20/2/1
f 22/1/1 14/1/1 18/1/1
f 22/1/1 18/1/1 21/1/1
f 27/6/1 24/6/1 23/6/1
f 28/6/1 24/6/1 27/6/1
f 31/6/1 26/6/1 25/6/1
f 32/6/1 26/6/1 31/6/1
f 33/5/1 30/5/1 29/5/1
f 34/5/1 30/5/1 33/5/1
f 39/4/1 36/4/1 35/4/1
f 39/6/1 37/6/1 36/6/1
f 40/4/1 38/4/1 37/4/1
f 40/6/1 37/6/1 39/6/1
f 41/4/1 39/4/1 35/4/1
f 41/4/1 40/4/1 39/4/1
f 42/4/1 38/4/1 40/4/1
f 42/4/1 40/4/1 41/4/1
f 47/2/1 44/2/1 43/2/1
f 48/2/1 44/2/1 47/2/1
f 49/2/1 46/2/1 45/2/1
f 50/2/1 46/2/1 49/2/1
f 55/6/1 52/6/1 51/6/1
f 56/6/1 52/6/1 55/6/1
f 57/6/1 54/6/1 53/6/1
f 58/6/1 54/6/1 57/6/1
f 59/6/2 60/6/2 63/6/2
f 63/6/2 60/6/2 64/6/2
f 61/6/2 62/6/2 65/6/2
f 65/6/2 62/6/2 66/6/2
f 67/2/2 68/2/2 71/2/2
f 71/2/2 68/2/2 72/2/2
f 69/2/2 70/2/2 73/2/2
f 73/2/2 70/2/2 74/2/2
f 75/4/2 76/4/2 79/4/2
f 76/6/2 77/6/2 79/6/2
f 77/4/2 78/4/2 80/4/2
f 79/6/2 77/6/2 80/6/2
f 75/4/2 79/4/2 81/4/2
f 79/4/2 80/4/2 81/4/2
f 80/4/2 78/4/2 82/4/2
f 81/4/2 80/4/2 82/4/2
f 83/6/2 84/6/2 87/6/2
f 87/6/2 84/6/2 88/6/2
f 85/6/2 86/6/2 89/6/2
f 89/6/2 86/6/2 90/6/2
f 91/5/2 92/5/2 93/5/2
f 93/5/2 92/5/2 94/5/2
f 93/2/2 94/2/2 95/2/2
f 95/2/2 94/2/2 96/2/2
f 95/1/2 96/1/2 97/1/2
f 97/1/2 96/1/2 98/1/2
f 101/2/3 100/2/3 99/2/3
f 102/2/3 100/2/3 101/2/3
f 108/5/3 104/5/3 103/5/3
f 109/2/3 105/2/3 104/2/3
f 109/5/3 104/5/3 108/5/3
f 110/1/3 106/1/3 105/1/3
f 110/2/3 105/2/3 109/2/3
f 111/6/3 109/6/3 108/6/3
f 111/6/3 108/6/3 107/6/3
f 111/6/3 110/6/3 109/6/3
f 112/6/3 110/6/3 111/6/3
f 113/6/3 111/6/3 107/6/3
f 113/4/3 112/4/3 111/4/3
f 114/6/3 110/6/3 112/6/3
f 114/4/3 112/4/3 113/4/3
f 115/6/3 113/6/3 107/6/3
f 115/6/3 114/6/3 113/6/3
f 116/6/3 114/6/3 115/6/3
f 117/6/3 110/6/3 114/6/3
f 117/6/3 114/6/3 116/6/3
f 118/1/3 106/1/3 110/1/3
f 118/6/3 110/6/3 117/6/3
f 119/1/3 106/1/3 118/1/3
f 120/1/3 106/1/3 119/1/3
f 121/1/3 119/1/3 118/1/3
f 124/5/3 117/5/3 116/5/3
f 125/2/3 118/2/3 117/2/3
f 125/5/3 117/5/3 124/5/3
f 126/1/3 122/1/3 121/1/3
f 126/2/3 118/2/3 125/2/3
f 126/1/3 121/1/3 118/1/3
f 127/6/3 125/6/3 124/6/3
f 127/6/3 124/6/3 123/6/3
f 127/6/3 126/6/3 125/6/3
f 128/6/3 126/6/3 127/6/3
f 129/6/3 127/6/3 123/6/3
f 129/4/3 128/4/3 127/4/3
f 130/6/3 126/6/3 128/6/3
f 130/4/3 128/4/3 129/4/3
f 131/6/3 129/6/3 123/6/3
f 131/6/3 130/6/3 129/6/3
f 132/6/3 130/6/3 131/6/3
f 133/6/3 126/6/3 130/6/3
f 133/6/3 130/6/3 132/6/3
f 134/1/3 122/1/3 126/1/3
f 134/6/3 126/6/3 133/6/3
f 135/5/3 133/5/3 132/5/3
f 136/2/3 134/2/3 133/2/3
f 136/5/3 133/5/3 135/5/3
f 137/1/3 122/1/3 134/1/3
f 137/2/3 134/2/3 136/2/3
f 138/1/3 122/1/3 137/1/3
f 141/4/3 140/4/3 139/4/3
f 142/4/3 140/4/3 141/4/3
f 143/6/3 142/6/3 141/6/3
f 144/4/3 140/4/3 142/4/3
f 144/6/3 142/6/3 143/6/3
f 145/4/3 144/4/3 143/4/3
f 146/4/3 140/4/3 144/4/3
f 146/4/3 144/4/3 145/4/3
f 147/6/3 146/6/3 145/6/3
f 148/4/3 140/4/3 146/4/3
f 148/6/3 146/6/3 147/6/3
f 149/4/3 148/4/3 147/4/3
f 150/4/3 140/4/3 148/4/3
f 150/4/3 148/4/3 149/4/3
f 153/5/3 152/5/3 151/5/3
f 154/5/3 152/5/3 153/5/3
f 157/6/3 156/6/3 155/6/3
f 158/6/3 156/6/3 157/6/3
f 161/6/3 160/6/3 159/6/3
f 162/6/3 160/6/3 161/6/3
f 163/6/4 164/6/4 165/6/4
f 165/6/4 164/6/4 166/6/4
f 167/6/4 168/6/4 169/6/4
f 169/6/4 168/6/4 170/6/4
f 171/5/4 172/5/4 173/5/4
f 173/5/4 172/5/4 174/5/4
f 175/4/4 176/4/4 177/4/4
f 177/4/4 176/4/4 178/4/4
f 177/6/4 178/6/4 179/6/4
f 178/4/4 176/4/4 180/4/4
f 179/6/4 178/6/4 180/6/4
f 179/4/4 180/4/4 181/4/4
f 180/4/4 176/4/4 182/4/4
f 181/4/4 180/4/4 182/4/4
f 181/6/4 182/6/4 183/6/4
f 182/4/4 176/4/4 184/4/4
f 183/6/4 182/6/4 184/6/4
f 183/4/4 184/4/4 185/4/4
f 184/4/4 176/4/4 186/4/4
f 185/4/4 184/4/4 186/4/4
f 187/5/4 188/5/4 192/5/4
f 188/2/4 189/2/4 193/2/4
f 192/5/4 188/5/4 193/5/4
f 189/1/4 190/1/4 194/1/4
f 193/2/4 189/2/4 194/2/4
f 192/6/4 193/6/4 195/6/4
f 191/6/4 192/6/4 195/6/4
f 193/6/4 194/6/4 195/6/4
f 195/6/4 194/6/4 196/6/4
f 191/6/4 195/6/4 197/6/4
f 195/4/4 196/4/4 197/4/4
f 196/6/4 194/6/4 198/6/4
f 197/4/4 196/4/4 198/4/4
f 191/6/4 197/6/4 199/6/4
f 197/6/4 198/6/4 199/6/4
f 199/6/4 198/6/4 200/6/4
f 198/6/4 194/6/4 201/6/4
f 200/6/4 198/6/4 201/6/4
f 194/1/4 190/1/4 202/1/4
f 201/6/4 194/6/4 202/6/4
f 202/1/4 190/1/4 203/1/4
f 203/1/4 190/1/4 204/1/4
f 202/1/4 203/1/4 205/1/4
f 200/5/4 201/5/4 208/5/4
f 201/2/4 202/2/4 209/2/4
f 208/5/4 201/5/4 209/5/4
f 205/1/4 206/1/4 210/1/4
f 209/2/4 202/2/4 210/2/4
f 202/1/4 205/1/4 210/1/4
f 208/6/4 209/6/4 211/6/4
f 207/6/4 208/6/4 211/6/4
f 209/6/4 210/6/4 211/6/4
f 211/6/4 210/6/4 212/6/4
f 207/6/4 211/6/4 213/6/4
f 211/4/4 212/4/4 213/4/4
f 212/6/4 210/6/4 214/6/4
f 213/4/4 212/4/4 214/4/4
f 207/6/4 213/6/4 215/6/4
f 213/6/4 214/6/4 215/6/4
f 215/6/4 214/6/4 216/6/4
f 214/6/4 210/6/4 217/6/4
f 216/6/4 214/6/4 217/6/4
f 210/1/4 206/1/4 218/1/4
f 217/6/4 210/6/4 218/6/4
f 216/5/4 217/5/4 219/5/4
f 217/2/4 218/2/4 220/2/4
f 219/5/4 217/5/4 220/5/4
f 218/1/4 206/1/4 221/1/4
f 220/2/4 218/2/4 221/2/4
f 221/1/4 206/1/4 222/1/4
f 223/2/4 224/2/4 225/2/4
f 225/2/4 224/2/4 226/2/4
f 231/6/5 228/6/5 227/6/5
f 232/6/5 228/6/5 231/6/5
f 233/6/5 230/6/5 229/6/5
f 234/6/5 230/6/5 233/6/5
f 239/6/5 236/6/5 235/6/5
f 240/6/5 236/6/5 239/6/5
f 241/6/5 238/6/5 237/6/5
f 242/6/5 238/6/5 241/6/5
f 249/5/5 244/5/5 243/5/5
f 250/5/5 246/5/5 245/5/5
f 251/5/5 246/5/5 250/5/5
f 252/5/5 248/5/5 247/5/5
f 253/5/5 251/5/5 250/5/5
f 253/5/5 252/5/5 251/5/5
f 253/5/5 249/5/5 243/5/5
f 253/5/5 250/5/5 249/5/5
f 254/5/5 252/5/5 253/5/5
f 256/5/5 252/5/5 254/5/5
f 257/5/5 252/5/5 256/5/5
f 257/5/5 256/5/5 255/5/5
f 258/5/5 252/5/5 257/5/5
f 259/5/5 252/5/5 258/5/5
f 260/5/5 248/5/5 252/5/5
f 260/5/5 252/5/5 259/5/5
f 261/5/5 257/5/5 255/5/5
f 262/5/5 257/5/5 261/5/5
f 263/5/5 259/5/5 258/5/5
f 264/5/5 259/5/5 263/5/5
f 265/5/5 248/5/5 260/5/5
f 266/5/5 248/5/5 265/5/5
f 269/2/5 268/2/5 267/2/5
f 270/2/5 268/2/5 269/2/5
f 273/2/5 272/2/5 271/2/5
f 274/2/5 272/2/5 273/2/5
f 277/2/5 276/2/5 275/2/5
f 278/2/5 276/2/5 277/2/5
f 279/2/6 280/2/6 282/2/6
f 282/2/6 280/2/6 283/2/6
f 281/1/6 282/1/6 285/1/6
f 283/1/6 284/1/6 285/1/6
f 282/1/6 283/1/6 285/1/6
f 285/1/6 284/1/6 286/1/6
f 286/1/6 284/1/6 287/1/6
f 287/1/6 284/1/6 288/1/6
f 288/1/6 284/1/6 289/1/6
f 289/1/6 284/1/6 290/1/6
f 281/1/6 285/1/6 291/1/6
f 291/1/6 285/1/6 292/1/6
f 290/1/6 284/1/6 293/1/6
f 291/2/6 292/2/6 294/2/6
f 294/2/6 292/2/6 295/2/6
f 293/1/6 284/1/6 296/1/6
f 294/1/6 295/1/6 297/1/6
f 296/1/6 284/1/6 302/1/6
f 300/1/6 301/1/6 303/1/6
f 301/1/6 302/1/6 303/1/6
f 294/1/6 297/1/6 303/1/6
f 297/1/6 298/1/6 303/1/6
f 299/1/6 300/1/6 303/1/6
f 298/1/6 299/1/6 303/1/6
f 303/1/6 302/1/6 304/1/6
f 304/1/6 302/1/6 305/1/6
f 302/1/6 284/1/6 306/1/6
f 305/1/6 302/1/6 306/1/6
f 304/2/6 305/2/6 307/2/6
f 307/2/6 305/2/6 308/2/6
f 309/4/6 310/4/6 311/4/6
f 311/4/6 310/4/6 312/4/6
