# MagicaVoxel @ Ephtracy

# group
o 

# material
mtllib Taxi.mtl
usemtl palette

# normals
vn -1 0 0
vn 1 0 0
vn 0 0 1
vn 0 0 -1
vn 0 -1 0
vn 0 1 0

# texcoords
vt 0.208984 0.5
vt 0.212891 0.5
vt 0.322266 0.5
vt 0.423828 0.5
vt 0.427734 0.5
vt 0.431641 0.5
vt 0.849609 0.5
vt 0.912109 0.5
vt 0.958984 0.5
vt 0.974609 0.5
vt 0.990234 0.5

# verts
v -0.8 0.1 0.4
v -0.8 0.1 0.2
v -0.8 0.1 -0.2
v -0.8 0.1 -0.4
v -0.8 0.2 0.4
v -0.8 0.2 0.2
v -0.8 0.2 -0.2
v -0.8 0.2 -0.4
v -0.8 0.3 0.4
v -0.8 0.3 0.3
v -0.8 0.3 0.2
v -0.8 0.3 -0.2
v -0.8 0.3 -0.3
v -0.8 0.3 -0.4
v -0.8 0.4 0.3
v -0.8 0.4 0.2
v -0.8 0.4 -0.2
v -0.8 0.4 -0.3
v -0.8 0.5 0.4
v -0.8 0.5 0.2
v -0.8 0.5 -0.2
v -0.8 0.5 -0.4
v -0.6 0 0.4
v -0.6 0 0.3
v -0.6 0 -0.3
v -0.6 0 -0.4
v -0.6 0.1 0.4
v -0.6 0.1 0.3
v -0.6 0.1 0.2
v -0.6 0.1 -0.2
v -0.6 0.1 -0.3
v -0.6 0.1 -0.4
v -0.6 0.2 0.2
v -0.6 0.2 -0.2
v -0.3 0.5 0.3
v -0.3 0.5 0.2
v -0.3 0.5 -0.2
v -0.3 0.5 -0.3
v -0.3 0.7 0.2
v -0.3 0.7 -0.2
v -0.3 0.8 0.3
v -0.3 0.8 -0.3
v -0.2 0.4 0.5
v -0.2 0.4 0.4
v -0.2 0.4 -0.4
v -0.2 0.4 -0.5
v -0.2 0.5 0.5
v -0.2 0.5 0.4
v -0.2 0.5 -0.4
v -0.2 0.5 -0.5
v -2.23517e-008 0.8 0.2
v -2.23517e-008 0.8 -0.2
v -2.23517e-008 0.9 0.2
v -2.23517e-008 0.9 -0.2
v 0.5 0 0.4
v 0.5 0 0.3
v 0.5 0 -0.3
v 0.5 0 -0.4
v 0.5 0.1 0.4
v 0.5 0.1 0.3
v 0.5 0.1 -0.3
v 0.5 0.1 -0.4
v -0.3 0 0.4
v -0.3 0 0.3
v -0.3 0 -0.3
v -0.3 0 -0.4
v -0.3 0.1 0.4
v -0.3 0.1 0.3
v -0.3 0.1 -0.3
v -0.3 0.1 -0.4
v -2.23517e-008 0.4 0.5
v -2.23517e-008 0.4 0.4
v -2.23517e-008 0.4 -0.4
v -2.23517e-008 0.4 -0.5
v -2.23517e-008 0.5 0.5
v -2.23517e-008 0.5 0.4
v -2.23517e-008 0.5 -0.4
v -2.23517e-008 0.5 -0.5
v 0.2 0.8 0.2
v 0.2 0.8 -0.2
v 0.2 0.9 0.2
v 0.2 0.9 -0.2
v 0.6 0.5 0.3
v 0.6 0.5 0.2
v 0.6 0.5 -0.2
v 0.6 0.5 -0.3
v 0.6 0.7 0.2
v 0.6 0.7 -0.2
v 0.6 0.8 0.3
v 0.6 0.8 -0.3
v 0.8 0 0.4
v 0.8 0 0.3
v 0.8 0 -0.3
v 0.8 0 -0.4
v 0.8 0.1 0.4
v 0.8 0.1 0.3
v 0.8 0.1 -0.3
v 0.8 0.1 -0.4
v 0.9 0.1 0.4
v 0.9 0.1 -0.4
v 0.9 0.2 0.4
v 0.9 0.2 -0.4
v 0.9 0.3 0.4
v 0.9 0.3 -0.4
v 0.9 0.5 0.4
v 0.9 0.5 -0.4
v -0.2 0.4 0.5
v -0.2 0.5 0.5
v -2.23517e-008 0.4 0.5
v -2.23517e-008 0.5 0.5
v -0.8 0.1 0.4
v -0.8 0.2 0.4
v -0.8 0.3 0.4
v -0.8 0.5 0.4
v -0.6 0 0.4
v -0.6 0.1 0.4
v -0.6 0.2 0.4
v -0.6 0.3 0.4
v -0.5 0.1 0.4
v -0.5 0.2 0.4
v -0.4 0.1 0.4
v -0.4 0.2 0.4
v -0.3 0 0.4
v -0.3 0.1 0.4
v -0.3 0.2 0.4
v -0.3 0.3 0.4
v -0.2 0.4 0.4
v -0.2 0.5 0.4
v -2.23517e-008 0.4 0.4
v -2.23517e-008 0.5 0.4
v 0.2 0.3 0.4
v 0.2 0.4 0.4
v 0.5 0 0.4
v 0.5 0.1 0.4
v 0.5 0.2 0.4
v 0.5 0.3 0.4
v 0.6 0.1 0.4
v 0.6 0.2 0.4
v 0.7 0.1 0.4
v 0.7 0.2 0.4
v 0.7 0.3 0.4
v 0.7 0.4 0.4
v 0.8 0 0.4
v 0.8 0.1 0.4
v 0.8 0.2 0.4
v 0.8 0.3 0.4
v 0.9 0.1 0.4
v 0.9 0.2 0.4
v 0.9 0.3 0.4
v 0.9 0.5 0.4
v -0.3 0.5 0.3
v -0.3 0.8 0.3
v -0.2 0.5 0.3
v -0.2 0.7 0.3
v 0.3 0.5 0.3
v 0.3 0.7 0.3
v 0.4 0.5 0.3
v 0.4 0.7 0.3
v 0.5 0.5 0.3
v 0.5 0.7 0.3
v 0.6 0.5 0.3
v 0.6 0.8 0.3
v -2.23517e-008 0.8 0.2
v -2.23517e-008 0.9 0.2
v 0.2 0.8 0.2
v 0.2 0.9 0.2
v -0.8 0.1 -0.2
v -0.8 0.2 -0.2
v -0.7 0.2 -0.2
v -0.6 0.1 -0.2
v -0.6 0.2 -0.2
v -0.6 0 -0.3
v -0.6 0.1 -0.3
v -0.3 0 -0.3
v -0.3 0.1 -0.3
v 0.5 0 -0.3
v 0.5 0.1 -0.3
v 0.8 0 -0.3
v 0.8 0.1 -0.3
v -0.6 0 0.3
v -0.6 0.1 0.3
v -0.3 0 0.3
v -0.3 0.1 0.3
v 0.5 0 0.3
v 0.5 0.1 0.3
v 0.8 0 0.3
v 0.8 0.1 0.3
v -0.8 0.1 0.2
v -0.8 0.2 0.2
v -0.7 0.2 0.2
v -0.6 0.1 0.2
v -0.6 0.2 0.2
v -2.23517e-008 0.8 -0.2
v -2.23517e-008 0.9 -0.2
v 0.2 0.8 -0.2
v 0.2 0.9 -0.2
v -0.3 0.5 -0.3
v -0.3 0.8 -0.3
v -0.2 0.5 -0.3
v -0.2 0.7 -0.3
v 0.3 0.5 -0.3
v 0.3 0.7 -0.3
v 0.4 0.5 -0.3
v 0.4 0.7 -0.3
v 0.5 0.5 -0.3
v 0.5 0.7 -0.3
v 0.6 0.5 -0.3
v 0.6 0.8 -0.3
v -0.8 0.1 -0.4
v -0.8 0.2 -0.4
v -0.8 0.3 -0.4
v -0.8 0.5 -0.4
v -0.6 0 -0.4
v -0.6 0.1 -0.4
v -0.6 0.2 -0.4
v -0.6 0.3 -0.4
v -0.5 0.1 -0.4
v -0.5 0.2 -0.4
v -0.4 0.1 -0.4
v -0.4 0.2 -0.4
v -0.3 0 -0.4
v -0.3 0.1 -0.4
v -0.3 0.2 -0.4
v -0.3 0.3 -0.4
v -0.2 0.4 -0.4
v -0.2 0.5 -0.4
v -2.23517e-008 0.4 -0.4
v -2.23517e-008 0.5 -0.4
v 0.2 0.3 -0.4
v 0.2 0.4 -0.4
v 0.5 0 -0.4
v 0.5 0.1 -0.4
v 0.5 0.2 -0.4
v 0.5 0.3 -0.4
v 0.6 0.1 -0.4
v 0.6 0.2 -0.4
v 0.7 0.1 -0.4
v 0.7 0.2 -0.4
v 0.7 0.3 -0.4
v 0.7 0.4 -0.4
v 0.8 0 -0.4
v 0.8 0.1 -0.4
v 0.8 0.2 -0.4
v 0.8 0.3 -0.4
v 0.9 0.1 -0.4
v 0.9 0.2 -0.4
v 0.9 0.3 -0.4
v 0.9 0.5 -0.4
v -0.2 0.4 -0.5
v -0.2 0.5 -0.5
v -2.23517e-008 0.4 -0.5
v -2.23517e-008 0.5 -0.5
v -0.6 0 0.4
v -0.3 0 0.4
v 0.5 0 0.4
v 0.8 0 0.4
v -0.6 0 0.3
v -0.3 0 0.3
v 0.5 0 0.3
v 0.8 0 0.3
v -0.6 0 -0.3
v -0.3 0 -0.3
v 0.5 0 -0.3
v 0.8 0 -0.3
v -0.6 0 -0.4
v -0.3 0 -0.4
v 0.5 0 -0.4
v 0.8 0 -0.4
v -0.8 0.1 0.4
v -0.6 0.1 0.4
v -0.3 0.1 0.4
v 0.5 0.1 0.4
v 0.8 0.1 0.4
v 0.9 0.1 0.4
v -0.6 0.1 0.3
v -0.3 0.1 0.3
v 0.5 0.1 0.3
v 0.8 0.1 0.3
v -0.8 0.1 0.2
v -0.6 0.1 0.2
v -0.8 0.1 -0.2
v -0.6 0.1 -0.2
v -0.6 0.1 -0.3
v -0.3 0.1 -0.3
v 0.5 0.1 -0.3
v 0.8 0.1 -0.3
v -0.8 0.1 -0.4
v -0.6 0.1 -0.4
v -0.3 0.1 -0.4
v 0.5 0.1 -0.4
v 0.8 0.1 -0.4
v 0.9 0.1 -0.4
v -0.8 0.2 0.2
v -0.7 0.2 0.2
v -0.6 0.2 0.2
v -0.8 0.2 -0.2
v -0.7 0.2 -0.2
v -0.6 0.2 -0.2
v -0.2 0.4 0.5
v -2.23517e-008 0.4 0.5
v -0.2 0.4 0.4
v -2.23517e-008 0.4 0.4
v -0.2 0.4 -0.4
v -2.23517e-008 0.4 -0.4
v -0.2 0.4 -0.5
v -2.23517e-008 0.4 -0.5
v -0.2 0.5 0.5
v -2.23517e-008 0.5 0.5
v -0.8 0.5 0.4
v -0.2 0.5 0.4
v -2.23517e-008 0.5 0.4
v 0.9 0.5 0.4
v -0.3 0.5 0.3
v -0.2 0.5 0.3
v 0.3 0.5 0.3
v 0.4 0.5 0.3
v 0.5 0.5 0.3
v 0.6 0.5 0.3
v -0.8 0.5 0.2
v -0.3 0.5 0.2
v 0.6 0.5 0.2
v -0.8 0.5 -0.2
v -0.3 0.5 -0.2
v 0.6 0.5 -0.2
v -0.3 0.5 -0.3
v -0.2 0.5 -0.3
v 0.3 0.5 -0.3
v 0.4 0.5 -0.3
v 0.5 0.5 -0.3
v 0.6 0.5 -0.3
v -0.8 0.5 -0.4
v -0.2 0.5 -0.4
v -2.23517e-008 0.5 -0.4
v 0.9 0.5 -0.4
v -0.2 0.5 -0.5
v -2.23517e-008 0.5 -0.5
v -0.3 0.8 0.3
v 0.6 0.8 0.3
v -2.23517e-008 0.8 0.2
v 0.2 0.8 0.2
v -2.23517e-008 0.8 -0.2
v 0.2 0.8 -0.2
v -0.3 0.8 -0.3
v 0.6 0.8 -0.3
v -2.23517e-008 0.9 0.2
v 0.2 0.9 0.2
v -2.23517e-008 0.9 -0.2
v 0.2 0.9 -0.2

# faces
f 5/10/1 2/10/1 1/10/1
f 6/10/1 2/10/1 5/10/1
f 7/10/1 4/10/1 3/10/1
f 8/10/1 4/10/1 7/10/1
f 9/6/1 6/6/1 5/6/1
f 9/6/1 7/6/1 6/6/1
f 9/6/1 8/6/1 7/6/1
f 10/6/1 8/6/1 9/6/1
f 11/6/1 8/6/1 10/6/1
f 12/6/1 8/6/1 11/6/1
f 13/6/1 8/6/1 12/6/1
f 14/6/1 8/6/1 13/6/1
f 15/4/1 10/4/1 9/4/1
f 15/8/1 11/8/1 10/8/1
f 16/6/1 12/6/1 11/6/1
f 16/8/1 11/8/1 15/8/1
f 17/8/1 13/8/1 12/8/1
f 17/6/1 12/6/1 16/6/1
f 18/4/1 14/4/1 13/4/1
f 18/8/1 13/8/1 17/8/1
f 19/4/1 15/4/1 9/4/1
f 19/4/1 16/4/1 15/4/1
f 20/6/1 17/6/1 16/6/1
f 20/4/1 16/4/1 19/4/1
f 21/4/1 18/4/1 17/4/1
f 21/6/1 17/6/1 20/6/1
f 22/4/1 14/4/1 18/4/1
f 22/4/1 18/4/1 21/4/1
f 27/11/1 24/11/1 23/11/1
f 28/11/1 24/11/1 27/11/1
f 31/11/1 26/11/1 25/11/1
f 32/11/1 26/11/1 31/11/1
f 33/10/1 30/10/1 29/10/1
f 34/10/1 30/10/1 33/10/1
f 39/9/1 36/9/1 35/9/1
f 39/11/1 37/11/1 36/11/1
f 40/9/1 38/9/1 37/9/1
f 40/11/1 37/11/1 39/11/1
f 41/9/1 39/9/1 35/9/1
f 41/9/1 40/9/1 39/9/1
f 42/9/1 38/9/1 40/9/1
f 42/9/1 40/9/1 41/9/1
f 47/6/1 44/6/1 43/6/1
f 48/6/1 44/6/1 47/6/1
f 49/6/1 46/6/1 45/6/1
f 50/6/1 46/6/1 49/6/1
f 53/6/1 52/6/1 51/6/1
f 54/6/1 52/6/1 53/6/1
f 59/11/1 56/11/1 55/11/1
f 60/11/1 56/11/1 59/11/1
f 61/11/1 58/11/1 57/11/1
f 62/11/1 58/11/1 61/11/1
f 63/11/2 64/11/2 67/11/2
f 67/11/2 64/11/2 68/11/2
f 65/11/2 66/11/2 69/11/2
f 69/11/2 66/11/2 70/11/2
f 71/6/2 72/6/2 75/6/2
f 75/6/2 72/6/2 76/6/2
f 73/6/2 74/6/2 77/6/2
f 77/6/2 74/6/2 78/6/2
f 79/6/2 80/6/2 81/6/2
f 81/6/2 80/6/2 82/6/2
f 83/9/2 84/9/2 87/9/2
f 84/11/2 85/11/2 87/11/2
f 85/9/2 86/9/2 88/9/2
f 87/11/2 85/11/2 88/11/2
f 83/9/2 87/9/2 89/9/2
f 87/9/2 88/9/2 89/9/2
f 88/9/2 86/9/2 90/9/2
f 89/9/2 88/9/2 90/9/2
f 91/11/2 92/11/2 95/11/2
f 95/11/2 92/11/2 96/11/2
f 93/11/2 94/11/2 97/11/2
f 97/11/2 94/11/2 98/11/2
f 99/10/2 100/10/2 101/10/2
f 101/10/2 100/10/2 102/10/2
f 101/6/2 102/6/2 103/6/2
f 103/6/2 102/6/2 104/6/2
f 103/4/2 104/4/2 105/4/2
f 105/4/2 104/4/2 106/4/2
f 109/6/3 108/6/3 107/6/3
f 110/6/3 108/6/3 109/6/3
f 116/10/3 112/10/3 111/10/3
f 117/6/3 113/6/3 112/6/3
f 117/10/3 112/10/3 116/10/3
f 118/4/3 114/4/3 113/4/3
f 118/6/3 113/6/3 117/6/3
f 119/11/3 117/11/3 116/11/3
f 119/11/3 116/11/3 115/11/3
f 119/11/3 118/11/3 117/11/3
f 120/11/3 118/11/3 119/11/3
f 121/11/3 119/11/3 115/11/3
f 121/9/3 120/9/3 119/9/3
f 122/11/3 118/11/3 120/11/3
f 122/9/3 120/9/3 121/9/3
f 123/11/3 121/11/3 115/11/3
f 123/11/3 122/11/3 121/11/3
f 124/11/3 122/11/3 123/11/3
f 125/11/3 118/11/3 122/11/3
f 125/11/3 122/11/3 124/11/3
f 126/4/3 114/4/3 118/4/3
f 126/11/3 118/11/3 125/11/3
f 127/4/3 114/4/3 126/4/3
f 128/4/3 114/4/3 127/4/3
f 129/4/3 127/4/3 126/4/3
f 131/6/3 126/6/3 125/6/3
f 131/4/3 130/4/3 129/4/3
f 131/4/3 129/4/3 126/4/3
f 132/4/3 130/4/3 131/4/3
f 134/10/3 125/10/3 124/10/3
f 135/6/3 131/6/3 125/6/3
f 135/10/3 125/10/3 134/10/3
f 136/3/3 132/3/3 131/3/3
f 136/6/3 131/6/3 135/6/3
f 137/11/3 134/11/3 133/11/3
f 137/11/3 135/11/3 134/11/3
f 137/11/3 136/11/3 135/11/3
f 138/11/3 136/11/3 137/11/3
f 139/11/3 137/11/3 133/11/3
f 139/9/3 138/9/3 137/9/3
f 140/11/3 136/11/3 138/11/3
f 140/9/3 138/9/3 139/9/3
f 141/3/3 132/3/3 136/3/3
f 141/11/3 136/11/3 140/11/3
f 142/4/3 130/4/3 132/4/3
f 142/3/3 132/3/3 141/3/3
f 143/11/3 141/11/3 140/11/3
f 143/11/3 140/11/3 139/11/3
f 143/11/3 139/11/3 133/11/3
f 144/11/3 141/11/3 143/11/3
f 145/11/3 141/11/3 144/11/3
f 146/4/3 142/4/3 141/4/3
f 146/11/3 141/11/3 145/11/3
f 147/10/3 145/10/3 144/10/3
f 148/6/3 146/6/3 145/6/3
f 148/10/3 145/10/3 147/10/3
f 149/4/3 142/4/3 146/4/3
f 149/6/3 146/6/3 148/6/3
f 150/4/3 130/4/3 142/4/3
f 150/4/3 142/4/3 149/4/3
f 153/9/3 152/9/3 151/9/3
f 154/9/3 152/9/3 153/9/3
f 155/11/3 154/11/3 153/11/3
f 156/9/3 152/9/3 154/9/3
f 156/11/3 154/11/3 155/11/3
f 157/9/3 156/9/3 155/9/3
f 158/9/3 152/9/3 156/9/3
f 158/9/3 156/9/3 157/9/3
f 159/11/3 158/11/3 157/11/3
f 160/9/3 152/9/3 158/9/3
f 160/11/3 158/11/3 159/11/3
f 161/9/3 160/9/3 159/9/3
f 162/9/3 152/9/3 160/9/3
f 162/9/3 160/9/3 161/9/3
f 165/6/3 164/6/3 163/6/3
f 166/6/3 164/6/3 165/6/3
f 169/10/3 168/10/3 167/10/3
f 170/10/3 169/10/3 167/10/3
f 171/10/3 169/10/3 170/10/3
f 174/11/3 173/11/3 172/11/3
f 175/11/3 173/11/3 174/11/3
f 178/11/3 177/11/3 176/11/3
f 179/11/3 177/11/3 178/11/3
f 180/11/4 181/11/4 182/11/4
f 182/11/4 181/11/4 183/11/4
f 184/11/4 185/11/4 186/11/4
f 186/11/4 185/11/4 187/11/4
f 188/10/4 189/10/4 190/10/4
f 188/10/4 190/10/4 191/10/4
f 191/10/4 190/10/4 192/10/4
f 193/6/4 194/6/4 195/6/4
f 195/6/4 194/6/4 196/6/4
f 197/9/4 198/9/4 199/9/4
f 199/9/4 198/9/4 200/9/4
f 199/11/4 200/11/4 201/11/4
f 200/9/4 198/9/4 202/9/4
f 201/11/4 200/11/4 202/11/4
f 201/9/4 202/9/4 203/9/4
f 202/9/4 198/9/4 204/9/4
f 203/9/4 202/9/4 204/9/4
f 203/11/4 204/11/4 205/11/4
f 204/9/4 198/9/4 206/9/4
f 205/11/4 204/11/4 206/11/4
f 205/9/4 206/9/4 207/9/4
f 206/9/4 198/9/4 208/9/4
f 207/9/4 206/9/4 208/9/4
f 209/10/4 210/10/4 214/10/4
f 210/6/4 211/6/4 215/6/4
f 214/10/4 210/10/4 215/10/4
f 211/4/4 212/4/4 216/4/4
f 215/6/4 211/6/4 216/6/4
f 214/11/4 215/11/4 217/11/4
f 213/11/4 214/11/4 217/11/4
f 215/11/4 216/11/4 217/11/4
f 217/11/4 216/11/4 218/11/4
f 213/11/4 217/11/4 219/11/4
f 217/9/4 218/9/4 219/9/4
f 218/11/4 216/11/4 220/11/4
f 219/9/4 218/9/4 220/9/4
f 213/11/4 219/11/4 221/11/4
f 219/11/4 220/11/4 221/11/4
f 221/11/4 220/11/4 222/11/4
f 220/11/4 216/11/4 223/11/4
f 222/11/4 220/11/4 223/11/4
f 216/4/4 212/4/4 224/4/4
f 223/11/4 216/11/4 224/11/4
f 224/4/4 212/4/4 225/4/4
f 225/4/4 212/4/4 226/4/4
f 224/4/4 225/4/4 227/4/4
f 223/6/4 224/6/4 229/6/4
f 227/4/4 228/4/4 229/4/4
f 224/4/4 227/4/4 229/4/4
f 229/4/4 228/4/4 230/4/4
f 222/10/4 223/10/4 232/10/4
f 223/6/4 229/6/4 233/6/4
f 232/10/4 223/10/4 233/10/4
f 229/3/4 230/3/4 234/3/4
f 233/6/4 229/6/4 234/6/4
f 231/11/4 232/11/4 235/11/4
f 232/11/4 233/11/4 235/11/4
f 233/11/4 234/11/4 235/11/4
f 235/11/4 234/11/4 236/11/4
f 231/11/4 235/11/4 237/11/4
f 235/9/4 236/9/4 237/9/4
f 236/11/4 234/11/4 238/11/4
f 237/9/4 236/9/4 238/9/4
f 234/3/4 230/3/4 239/3/4
f 238/11/4 234/11/4 239/11/4
f 230/4/4 228/4/4 240/4/4
f 239/3/4 230/3/4 240/3/4
f 238/11/4 239/11/4 241/11/4
f 237/11/4 238/11/4 241/11/4
f 231/11/4 237/11/4 241/11/4
f 241/11/4 239/11/4 242/11/4
f 242/11/4 239/11/4 243/11/4
f 239/4/4 240/4/4 244/4/4
f 243/11/4 239/11/4 244/11/4
f 242/10/4 243/10/4 245/10/4
f 243/6/4 244/6/4 246/6/4
f 245/10/4 243/10/4 246/10/4
f 244/4/4 240/4/4 247/4/4
f 246/6/4 244/6/4 247/6/4
f 240/4/4 228/4/4 248/4/4
f 247/4/4 240/4/4 248/4/4
f 249/6/4 250/6/4 251/6/4
f 251/6/4 250/6/4 252/6/4
f 257/11/5 254/11/5 253/11/5
f 258/11/5 254/11/5 257/11/5
f 259/11/5 256/11/5 255/11/5
f 260/11/5 256/11/5 259/11/5
f 265/11/5 262/11/5 261/11/5
f 266/11/5 262/11/5 265/11/5
f 267/11/5 264/11/5 263/11/5
f 268/11/5 264/11/5 267/11/5
f 275/10/5 270/10/5 269/10/5
f 276/10/5 272/10/5 271/10/5
f 277/10/5 272/10/5 276/10/5
f 278/10/5 274/10/5 273/10/5
f 279/10/5 277/10/5 276/10/5
f 279/10/5 278/10/5 277/10/5
f 279/10/5 275/10/5 269/10/5
f 279/10/5 276/10/5 275/10/5
f 280/10/5 278/10/5 279/10/5
f 282/10/5 278/10/5 280/10/5
f 283/10/5 278/10/5 282/10/5
f 283/10/5 282/10/5 281/10/5
f 284/10/5 278/10/5 283/10/5
f 285/10/5 278/10/5 284/10/5
f 286/10/5 274/10/5 278/10/5
f 286/10/5 278/10/5 285/10/5
f 287/10/5 283/10/5 281/10/5
f 288/10/5 283/10/5 287/10/5
f 289/10/5 285/10/5 284/10/5
f 290/10/5 285/10/5 289/10/5
f 291/10/5 274/10/5 286/10/5
f 292/10/5 274/10/5 291/10/5
f 296/6/5 294/6/5 293/6/5
f 297/5/5 295/5/5 294/5/5
f 297/6/5 294/6/5 296/6/5
f 298/5/5 295/5/5 297/5/5
f 301/6/5 300/6/5 299/6/5
f 302/6/5 300/6/5 301/6/5
f 305/6/5 304/6/5 303/6/5
f 306/6/5 304/6/5 305/6/5
f 307/6/6 308/6/6 310/6/6
f 310/6/6 308/6/6 311/6/6
f 309/4/6 310/4/6 313/4/6
f 311/4/6 312/4/6 313/4/6
f 310/4/6 311/4/6 313/4/6
f 313/4/6 312/4/6 314/4/6
f 314/4/6 312/4/6 315/4/6
f 315/4/6 312/4/6 316/4/6
f 316/4/6 312/4/6 317/4/6
f 317/4/6 312/4/6 318/4/6
f 309/4/6 313/4/6 319/4/6
f 319/4/6 313/4/6 320/4/6
f 318/4/6 312/4/6 321/4/6
f 319/6/6 320/6/6 322/6/6
f 322/6/6 320/6/6 323/6/6
f 321/4/6 312/4/6 324/4/6
f 322/4/6 323/4/6 325/4/6
f 324/4/6 312/4/6 330/4/6
f 328/4/6 329/4/6 331/4/6
f 329/4/6 330/4/6 331/4/6
f 322/4/6 325/4/6 331/4/6
f 325/4/6 326/4/6 331/4/6
f 327/4/6 328/4/6 331/4/6
f 326/4/6 327/4/6 331/4/6
f 331/4/6 330/4/6 332/4/6
f 332/4/6 330/4/6 333/4/6
f 330/4/6 312/4/6 334/4/6
f 333/4/6 330/4/6 334/4/6
f 332/6/6 333/6/6 335/6/6
f 335/6/6 333/6/6 336/6/6
f 337/9/6 338/9/6 339/9/6
f 339/9/6 338/9/6 340/9/6
f 337/9/6 339/9/6 341/9/6
f 340/9/6 338/9/6 342/9/6
f 337/9/6 341/9/6 343/9/6
f 341/9/6 342/9/6 343/9/6
f 342/9/6 338/9/6 344/9/6
f 343/9/6 342/9/6 344/9/6
f 345/6/6 346/6/6 347/6/6
f 347/6/6 346/6/6 348/6/6
